<svg width="532" height="532" viewBox="0 0 532 532" fill="none" xmlns="http://www.w3.org/2000/svg">
<g clip-path="url(#clip0)">
<rect width="532" height="532" rx="20" fill="white"/>
<path d="M45 45L39 39M41 34C41 37.866 37.866 41 34 41C30.134 41 27 37.866 27 34C27 30.134 30.134 27 34 27C37.866 27 41 30.134 41 34Z" stroke="#A1A1AA" stroke-width="1.5" stroke-linecap="round" stroke-linejoin="round"/>
<path d="M67.5227 41.5H68.9773L71.5455 32.2273H71.6364L74.2045 41.5H75.6591L78.8409 29.8636H77.4091L74.9773 39.3409H74.8636L72.3864 29.8636H70.7955L68.3182 39.3409H68.2045L65.7727 29.8636H64.3409L67.5227 41.5ZM81.4357 36.25C81.4357 34.7273 82.4073 33.8636 83.7311 33.8636C84.9925 33.8636 85.7539 34.6591 85.7539 36.0455V41.5H87.0948V35.9545C87.0948 33.7102 85.9016 32.6591 84.1175 32.6591C82.7425 32.6591 81.9584 33.233 81.5493 34.1364H81.4357V29.8636H80.0948V41.5H81.4357V36.25ZM91.7961 41.7045C93.3188 41.7045 94.1143 40.8864 94.387 40.3182H94.4552V41.5H95.7961V35.75C95.7961 32.9773 93.6824 32.6591 92.5688 32.6591C91.2506 32.6591 89.7506 33.1136 89.0688 34.7045L90.3415 35.1591C90.637 34.5227 91.3359 33.8409 92.6143 33.8409C93.8472 33.8409 94.4552 34.4943 94.4552 35.6136V35.6591C94.4552 36.3068 93.7961 36.25 92.2052 36.4545C90.5859 36.6648 88.8188 37.0227 88.8188 39.0227C88.8188 40.7273 90.137 41.7045 91.7961 41.7045ZM92.0006 40.5C90.9324 40.5 90.1597 40.0227 90.1597 39.0909C90.1597 38.0682 91.0915 37.75 92.137 37.6136C92.7052 37.5455 94.2279 37.3864 94.4552 37.1136V38.3409C94.4552 39.4318 93.5915 40.5 92.0006 40.5ZM101.719 32.7727H99.8553V30.6818H98.5144V32.7727H97.1963V33.9091H98.5144V39.3636C98.5144 40.8864 99.7417 41.6136 100.878 41.6136C101.378 41.6136 101.696 41.5227 101.878 41.4545L101.605 40.25C101.492 40.2727 101.31 40.3182 101.014 40.3182C100.424 40.3182 99.8553 40.1364 99.8553 39V33.9091H101.719V32.7727ZM109.573 41.5H110.891L112.801 34.7955H112.937L114.846 41.5H116.164L118.823 32.7727H117.414L115.528 39.4318H115.437L113.596 32.7727H112.164L110.301 39.4545H110.21L108.323 32.7727H106.914L109.573 41.5ZM123.525 41.6818C125.888 41.6818 127.479 39.8864 127.479 37.1818C127.479 34.4545 125.888 32.6591 123.525 32.6591C121.161 32.6591 119.57 34.4545 119.57 37.1818C119.57 39.8864 121.161 41.6818 123.525 41.6818ZM123.525 40.4773C121.729 40.4773 120.911 38.9318 120.911 37.1818C120.911 35.4318 121.729 33.8636 123.525 33.8636C125.32 33.8636 126.138 35.4318 126.138 37.1818C126.138 38.9318 125.32 40.4773 123.525 40.4773ZM134.706 37.9318C134.706 39.5682 133.456 40.3182 132.456 40.3182C131.342 40.3182 130.547 39.5 130.547 38.2273V32.7727H129.206V38.3182C129.206 40.5455 130.388 41.6136 132.024 41.6136C133.342 41.6136 134.206 40.9091 134.615 40.0227H134.706V41.5H136.047V32.7727H134.706V37.9318ZM139.524 29.8636H138.183V41.5H139.524V29.8636ZM144.955 41.6818C146.637 41.6818 147.205 40.6364 147.501 40.1591H147.66V41.5H148.955V29.8636H147.614V34.1591H147.501C147.205 33.7045 146.683 32.6591 144.978 32.6591C142.773 32.6591 141.251 34.4091 141.251 37.1591C141.251 39.9318 142.773 41.6818 144.955 41.6818ZM145.137 40.4773C143.455 40.4773 142.592 39 142.592 37.1364C142.592 35.2955 143.433 33.8636 145.137 33.8636C146.773 33.8636 147.637 35.1818 147.637 37.1364C147.637 39.1136 146.751 40.4773 145.137 40.4773ZM156.321 44.7727C157.531 44.7727 158.383 44.1307 158.889 42.7727L162.605 32.7955L161.139 32.7727L158.73 39.7273H158.639L156.23 32.7727H154.775L158.003 41.5455L157.753 42.2273C157.264 43.5568 156.662 43.6818 155.685 43.4318L155.344 44.6136C155.48 44.6818 155.866 44.7727 156.321 44.7727ZM167.292 41.6818C169.656 41.6818 171.247 39.8864 171.247 37.1818C171.247 34.4545 169.656 32.6591 167.292 32.6591C164.928 32.6591 163.338 34.4545 163.338 37.1818C163.338 39.8864 164.928 41.6818 167.292 41.6818ZM167.292 40.4773C165.497 40.4773 164.678 38.9318 164.678 37.1818C164.678 35.4318 165.497 33.8636 167.292 33.8636C169.088 33.8636 169.906 35.4318 169.906 37.1818C169.906 38.9318 169.088 40.4773 167.292 40.4773ZM178.474 37.9318C178.474 39.5682 177.224 40.3182 176.224 40.3182C175.11 40.3182 174.314 39.5 174.314 38.2273V32.7727H172.974V38.3182C172.974 40.5455 174.155 41.6136 175.792 41.6136C177.11 41.6136 177.974 40.9091 178.383 40.0227H178.474V41.5H179.814V32.7727H178.474V37.9318ZM187.471 29.8636H186.13V41.5H187.471V29.8636ZM189.607 41.5H190.948V32.7727H189.607V41.5ZM190.289 31.3182C190.812 31.3182 191.244 30.9091 191.244 30.4091C191.244 29.9091 190.812 29.5 190.289 29.5C189.766 29.5 189.335 29.9091 189.335 30.4091C189.335 30.9091 189.766 31.3182 190.289 31.3182ZM193.084 41.5H194.425V38.233L195.363 37.3636L198.63 41.5H200.334L196.374 36.5L200.061 32.7727H198.402L194.584 36.6591H194.425V29.8636H193.084V41.5ZM204.767 41.6818C206.54 41.6818 207.835 40.7955 208.244 39.4773L206.949 39.1136C206.608 40.0227 205.818 40.4773 204.767 40.4773C203.193 40.4773 202.108 39.4602 202.045 37.5909H208.381V37.0227C208.381 33.7727 206.449 32.6591 204.631 32.6591C202.267 32.6591 200.699 34.5227 200.699 37.2045C200.699 39.8864 202.244 41.6818 204.767 41.6818ZM202.045 36.4318C202.136 35.0739 203.097 33.8636 204.631 33.8636C206.085 33.8636 207.017 34.9545 207.017 36.4318H202.045ZM218.076 32.7727H216.212V30.6818H214.871V32.7727H213.553V33.9091H214.871V39.3636C214.871 40.8864 216.099 41.6136 217.235 41.6136C217.735 41.6136 218.053 41.5227 218.235 41.4545L217.962 40.25C217.849 40.2727 217.667 40.3182 217.371 40.3182C216.78 40.3182 216.212 40.1364 216.212 39V33.9091H218.076V32.7727ZM223.225 41.6818C225.588 41.6818 227.179 39.8864 227.179 37.1818C227.179 34.4545 225.588 32.6591 223.225 32.6591C220.861 32.6591 219.27 34.4545 219.27 37.1818C219.27 39.8864 220.861 41.6818 223.225 41.6818ZM223.225 40.4773C221.429 40.4773 220.611 38.9318 220.611 37.1818C220.611 35.4318 221.429 33.8636 223.225 33.8636C225.02 33.8636 225.838 35.4318 225.838 37.1818C225.838 38.9318 225.02 40.4773 223.225 40.4773ZM236.381 41.6818C238.063 41.6818 238.631 40.6364 238.927 40.1591H239.086V41.5H240.381V29.8636H239.041V34.1591H238.927C238.631 33.7045 238.109 32.6591 236.404 32.6591C234.2 32.6591 232.677 34.4091 232.677 37.1591C232.677 39.9318 234.2 41.6818 236.381 41.6818ZM236.563 40.4773C234.881 40.4773 234.018 39 234.018 37.1364C234.018 35.2955 234.859 33.8636 236.563 33.8636C238.2 33.8636 239.063 35.1818 239.063 37.1364C239.063 39.1136 238.177 40.4773 236.563 40.4773ZM246.249 41.6818C248.613 41.6818 250.204 39.8864 250.204 37.1818C250.204 34.4545 248.613 32.6591 246.249 32.6591C243.885 32.6591 242.294 34.4545 242.294 37.1818C242.294 39.8864 243.885 41.6818 246.249 41.6818ZM246.249 40.4773C244.454 40.4773 243.635 38.9318 243.635 37.1818C243.635 35.4318 244.454 33.8636 246.249 33.8636C248.044 33.8636 248.863 35.4318 248.863 37.1818C248.863 38.9318 248.044 40.4773 246.249 40.4773ZM253.68 38.2273H255.044V38.1591C255.067 36.75 255.43 36.1364 256.43 35.5114C257.43 34.9034 258.021 34.0284 258.021 32.7727C258.021 31 256.726 29.7045 254.726 29.7045C252.885 29.7045 251.425 30.8409 251.339 32.7727H252.771C252.857 31.4318 253.794 30.8864 254.726 30.8864C255.794 30.8864 256.658 31.5909 256.658 32.7045C256.658 33.608 256.141 34.2557 255.476 34.6591C254.362 35.3352 253.697 35.9943 253.68 38.1591V38.2273ZM254.408 41.5909C254.97 41.5909 255.43 41.1307 255.43 40.5682C255.43 40.0057 254.97 39.5455 254.408 39.5455C253.845 39.5455 253.385 40.0057 253.385 40.5682C253.385 41.1307 253.845 41.5909 254.408 41.5909Z" fill="#A1A1AA"/>
<rect x="473.5" y="22.5" width="34" height="27" rx="3.5" fill="#FAFAFA"/>
<path d="M483.276 41.1591C484.827 41.1591 485.96 40.3835 486.318 39.2301L485.185 38.9119C484.886 39.7074 484.195 40.1051 483.276 40.1051C481.898 40.1051 480.949 39.2152 480.894 37.5795H486.438V37.0824C486.438 34.2386 484.747 33.2642 483.156 33.2642C481.088 33.2642 479.716 34.8949 479.716 37.2415C479.716 39.5881 481.068 41.1591 483.276 41.1591ZM480.894 36.5653C480.974 35.3771 481.814 34.3182 483.156 34.3182C484.429 34.3182 485.244 35.2727 485.244 36.5653H480.894ZM493.351 35.0739C492.983 33.9901 492.158 33.2642 490.647 33.2642C489.036 33.2642 487.843 34.179 487.843 35.4716C487.843 36.5256 488.469 37.2315 489.871 37.5597L491.144 37.858C491.915 38.0369 492.278 38.4048 492.278 38.9318C492.278 39.5881 491.582 40.125 490.488 40.125C489.528 40.125 488.927 39.7124 488.718 38.892L487.604 39.1705C487.878 40.468 488.947 41.1591 490.508 41.1591C492.282 41.1591 493.491 40.1896 493.491 38.8722C493.491 37.8082 492.824 37.1371 491.462 36.804L490.329 36.5256C489.424 36.3018 489.016 35.9986 489.016 35.4119C489.016 34.7557 489.712 34.2784 490.647 34.2784C491.671 34.2784 492.094 34.8452 492.297 35.3722L493.351 35.0739ZM498.079 41.1591C499.769 41.1591 500.883 40.125 501.082 38.7727H499.909C499.69 39.608 498.994 40.1051 498.079 40.1051C496.687 40.1051 495.792 38.9517 495.792 37.1818C495.792 35.4517 496.707 34.3182 498.079 34.3182C499.113 34.3182 499.73 34.9545 499.909 35.6506H501.082C500.883 34.2188 499.67 33.2642 498.059 33.2642C495.991 33.2642 494.619 34.8949 494.619 37.2216C494.619 39.5085 495.931 41.1591 498.079 41.1591Z" fill="#71717A"/>
<rect x="473.5" y="22.5" width="34" height="27" rx="3.5" stroke="#F4F4F5"/>
<line x1="-1.45312" y1="75.5" x2="532" y2="75.5" stroke="#F4F4F5"/>
<rect width="532" height="56" transform="translate(0 137)" fill="#F4F4F5"/>
<path d="M19 165L21 163M21 163L28 156L35 163M21 163V173C21 173.552 21.4477 174 22 174H25M35 163L37 165M35 163V173C35 173.552 34.5523 174 34 174H31M25 174C25.5523 174 26 173.552 26 173V169C26 168.448 26.4477 168 27 168H29C29.5523 168 30 168.448 30 169V173C30 173.552 30.4477 174 31 174M25 174H31" stroke="#3F3F46" stroke-width="1.5" stroke-linecap="round" stroke-linejoin="round"/>
<path d="M57.4091 170.5H58.8182V165.295H65.0227V170.5H66.4318V158.864H65.0227V164.045H58.8182V158.864H57.4091V170.5ZM72.2965 170.682C74.6601 170.682 76.251 168.886 76.251 166.182C76.251 163.455 74.6601 161.659 72.2965 161.659C69.9328 161.659 68.3419 163.455 68.3419 166.182C68.3419 168.886 69.9328 170.682 72.2965 170.682ZM72.2965 169.477C70.501 169.477 69.6828 167.932 69.6828 166.182C69.6828 164.432 70.501 162.864 72.2965 162.864C74.0919 162.864 74.9101 164.432 74.9101 166.182C74.9101 167.932 74.0919 169.477 72.2965 169.477ZM77.9779 170.5H79.3188V165.045C79.3188 163.767 80.2506 162.864 81.2961 162.864C82.3131 162.864 83.0234 163.528 83.0234 164.523V170.5H84.387V164.818C84.387 163.693 85.0915 162.864 86.3188 162.864C87.2734 162.864 88.0915 163.369 88.0915 164.659V170.5H89.4324V164.659C89.4324 162.608 88.3302 161.659 86.7734 161.659C85.5234 161.659 84.6086 162.233 84.1597 163.136H84.0688C83.637 162.205 82.8756 161.659 81.7279 161.659C80.5915 161.659 79.7506 162.205 79.387 163.136H79.2734V161.773H77.9779V170.5ZM95.2232 170.682C96.996 170.682 98.2914 169.795 98.7005 168.477L97.4051 168.114C97.0641 169.023 96.2744 169.477 95.2232 169.477C93.6494 169.477 92.5641 168.46 92.5016 166.591H98.8369V166.023C98.8369 162.773 96.9051 161.659 95.0869 161.659C92.7232 161.659 91.1551 163.523 91.1551 166.205C91.1551 168.886 92.7005 170.682 95.2232 170.682ZM92.5016 165.432C92.5926 164.074 93.5528 162.864 95.0869 162.864C96.5414 162.864 97.4732 163.955 97.4732 165.432H92.5016Z" fill="#3F3F46"/>
<rect x="460" y="153" width="24" height="24" rx="4" fill="#F4F4F5"/>
<path d="M475.193 163H476.466C476.088 161.031 474.438 159.679 472.29 159.679C469.68 159.679 467.835 161.688 467.835 164.909C467.835 168.131 469.665 170.139 472.369 170.139C474.795 170.139 476.526 168.523 476.526 166.003V164.909H472.648V166.003H475.332C475.298 167.832 474.094 168.986 472.369 168.986C470.48 168.986 469.028 167.554 469.028 164.909C469.028 162.264 470.48 160.832 472.29 160.832C473.761 160.832 474.761 161.663 475.193 163Z" fill="#A1A1AA"/>
<rect x="492" y="153" width="24" height="24" rx="4" fill="#F4F4F5"/>
<path d="M500.233 170H501.466V165.446H506.895V170H508.128V159.818H506.895V164.352H501.466V159.818H500.233V170Z" fill="#A1A1AA"/>
<path d="M33 228H38V226C38 224.343 36.6569 223 35 223C34.0444 223 33.1931 223.447 32.6438 224.143M33 228H23M33 228V226C33 225.344 32.8736 224.717 32.6438 224.143M23 228H18V226C18 224.343 19.3431 223 21 223C21.9556 223 22.8069 223.447 23.3562 224.143M23 228V226C23 225.344 23.1264 224.717 23.3562 224.143M23.3562 224.143C24.0935 222.301 25.8948 221 28 221C30.1052 221 31.9065 222.301 32.6438 224.143M31 215C31 216.657 29.6569 218 28 218C26.3431 218 25 216.657 25 215C25 213.343 26.3431 212 28 212C29.6569 212 31 213.343 31 215ZM37 218C37 219.105 36.1046 220 35 220C33.8954 220 33 219.105 33 218C33 216.895 33.8954 216 35 216C36.1046 216 37 216.895 37 218ZM23 218C23 219.105 22.1046 220 21 220C19.8954 220 19 219.105 19 218C19 216.895 19.8954 216 21 216C22.1046 216 23 216.895 23 218Z" stroke="#A1A1AA" stroke-width="1.5" stroke-linecap="round" stroke-linejoin="round"/>
<path d="M56.7727 215.114H60.4318V225.5H61.8409V215.114H65.5V213.864H56.7727V215.114ZM69.5664 225.682C71.3391 225.682 72.6345 224.795 73.0436 223.477L71.7482 223.114C71.4073 224.023 70.6175 224.477 69.5664 224.477C67.9925 224.477 66.9073 223.46 66.8448 221.591H73.18V221.023C73.18 217.773 71.2482 216.659 69.43 216.659C67.0664 216.659 65.4982 218.523 65.4982 221.205C65.4982 223.886 67.0436 225.682 69.5664 225.682ZM66.8448 220.432C66.9357 219.074 67.8959 217.864 69.43 217.864C70.8845 217.864 71.8164 218.955 71.8164 220.432H66.8448ZM77.468 225.705C78.9907 225.705 79.7861 224.886 80.0589 224.318H80.127V225.5H81.468V219.75C81.468 216.977 79.3543 216.659 78.2407 216.659C76.9225 216.659 75.4225 217.114 74.7407 218.705L76.0134 219.159C76.3089 218.523 77.0077 217.841 78.2861 217.841C79.5191 217.841 80.127 218.494 80.127 219.614V219.659C80.127 220.307 79.468 220.25 77.877 220.455C76.2577 220.665 74.4907 221.023 74.4907 223.023C74.4907 224.727 75.8089 225.705 77.468 225.705ZM77.6725 224.5C76.6043 224.5 75.8316 224.023 75.8316 223.091C75.8316 222.068 76.7634 221.75 77.8089 221.614C78.377 221.545 79.8998 221.386 80.127 221.114V222.341C80.127 223.432 79.2634 224.5 77.6725 224.5ZM83.5954 225.5H84.9363V220.045C84.9363 218.767 85.8681 217.864 86.9136 217.864C87.9306 217.864 88.6409 218.528 88.6409 219.523V225.5H90.0045V219.818C90.0045 218.693 90.709 217.864 91.9363 217.864C92.8909 217.864 93.709 218.369 93.709 219.659V225.5H95.0499V219.659C95.0499 217.608 93.9477 216.659 92.3909 216.659C91.1409 216.659 90.2261 217.233 89.7772 218.136H89.6863C89.2545 217.205 88.4931 216.659 87.3454 216.659C86.209 216.659 85.3681 217.205 85.0045 218.136H84.8909V216.773H83.5954V225.5Z" fill="#A1A1AA"/>
<rect x="460" y="208" width="24" height="24" rx="4" fill="#F4F4F5"/>
<path d="M475.193 218H476.466C476.088 216.031 474.438 214.679 472.29 214.679C469.68 214.679 467.835 216.688 467.835 219.909C467.835 223.131 469.665 225.139 472.369 225.139C474.795 225.139 476.526 223.523 476.526 221.003V219.909H472.648V221.003H475.332C475.298 222.832 474.094 223.986 472.369 223.986C470.48 223.986 469.028 222.554 469.028 219.909C469.028 217.264 470.48 215.832 472.29 215.832C473.761 215.832 474.761 216.663 475.193 218Z" fill="#A1A1AA"/>
<rect x="492" y="208" width="24" height="24" rx="4" fill="#F4F4F5"/>
<path d="M499.676 215.912H502.878V225H504.111V215.912H507.312V214.818H499.676V215.912Z" fill="#A1A1AA"/>
<path d="M26.3246 268.317C26.751 266.561 29.249 266.561 29.6754 268.317C29.9508 269.452 31.2507 269.99 32.2478 269.383C33.7913 268.442 35.5576 270.209 34.6172 271.752C34.0096 272.749 34.5481 274.049 35.6827 274.325C37.4391 274.751 37.4391 277.249 35.6827 277.675C34.5481 277.951 34.0096 279.251 34.6172 280.248C35.5576 281.791 33.7913 283.558 32.2478 282.617C31.2507 282.01 29.9508 282.548 29.6754 283.683C29.249 285.439 26.751 285.439 26.3246 283.683C26.0492 282.548 24.7493 282.01 23.7522 282.617C22.2087 283.558 20.4424 281.791 21.3829 280.248C21.9904 279.251 21.4519 277.951 20.3173 277.675C18.5609 277.249 18.5609 274.751 20.3173 274.325C21.4519 274.049 21.9904 272.749 21.3828 271.752C20.4424 270.209 22.2087 268.442 23.7522 269.383C24.7493 269.99 26.0492 269.452 26.3246 268.317Z" stroke="#A1A1AA" stroke-width="1.5" stroke-linecap="round" stroke-linejoin="round"/>
<path d="M31 276C31 277.657 29.6569 279 28 279C26.3431 279 25 277.657 25 276C25 274.343 26.3431 273 28 273C29.6569 273 31 274.343 31 276Z" stroke="#A1A1AA" stroke-width="1.5" stroke-linecap="round" stroke-linejoin="round"/>
<path d="M63.7727 272.773H65.1364C65.0739 271.017 63.4545 269.705 61.2045 269.705C58.9773 269.705 57.2273 271 57.2273 272.955C57.2273 274.523 58.3636 275.455 60.1818 275.977L61.6136 276.386C62.8409 276.727 63.9318 277.159 63.9318 278.318C63.9318 279.591 62.7045 280.432 61.0909 280.432C59.7045 280.432 58.4773 279.818 58.3636 278.5H56.9091C57.0455 280.409 58.5909 281.705 61.0909 281.705C63.7727 281.705 65.2955 280.227 65.2955 278.341C65.2955 276.159 63.2273 275.455 62.0227 275.136L60.8409 274.818C59.9773 274.591 58.5909 274.136 58.5909 272.886C58.5909 271.773 59.6136 270.955 61.1591 270.955C62.5682 270.955 63.6364 271.625 63.7727 272.773ZM70.7695 281.682C72.5422 281.682 73.8377 280.795 74.2468 279.477L72.9513 279.114C72.6104 280.023 71.8206 280.477 70.7695 280.477C69.1956 280.477 68.1104 279.46 68.0479 277.591H74.3831V277.023C74.3831 273.773 72.4513 272.659 70.6331 272.659C68.2695 272.659 66.7013 274.523 66.7013 277.205C66.7013 279.886 68.2468 281.682 70.7695 281.682ZM68.0479 276.432C68.1388 275.074 69.099 273.864 70.6331 273.864C72.0877 273.864 73.0195 274.955 73.0195 276.432H68.0479ZM79.8984 272.773H78.0347V270.682H76.6938V272.773H75.3756V273.909H76.6938V279.364C76.6938 280.886 77.9211 281.614 79.0574 281.614C79.5574 281.614 79.8756 281.523 80.0574 281.455L79.7847 280.25C79.6711 280.273 79.4893 280.318 79.1938 280.318C78.6029 280.318 78.0347 280.136 78.0347 279V273.909H79.8984V272.773ZM85.3909 272.773H83.5272V270.682H82.1863V272.773H80.8681V273.909H82.1863V279.364C82.1863 280.886 83.4136 281.614 84.5499 281.614C85.0499 281.614 85.3681 281.523 85.5499 281.455L85.2772 280.25C85.1636 280.273 84.9818 280.318 84.6863 280.318C84.0954 280.318 83.5272 280.136 83.5272 279V273.909H85.3909V272.773ZM87.0879 281.5H88.4288V272.773H87.0879V281.5ZM87.7697 271.318C88.2924 271.318 88.7243 270.909 88.7243 270.409C88.7243 269.909 88.2924 269.5 87.7697 269.5C87.247 269.5 86.8152 269.909 86.8152 270.409C86.8152 270.909 87.247 271.318 87.7697 271.318ZM91.9057 276.25C91.9057 274.727 92.8489 273.864 94.133 273.864C95.3773 273.864 96.133 274.676 96.133 276.045V281.5H97.4739V275.955C97.4739 273.727 96.2864 272.659 94.5193 272.659C93.2011 272.659 92.383 273.25 91.9739 274.136H91.8602V272.773H90.5648V281.5H91.9057V276.25ZM103.127 284.955C105.218 284.955 106.9 284 106.9 281.75V272.773H105.604V274.159H105.468C105.172 273.705 104.627 272.659 102.922 272.659C100.718 272.659 99.1951 274.409 99.1951 277.091C99.1951 279.818 100.786 281.364 102.9 281.364C104.604 281.364 105.15 280.364 105.445 279.886H105.559V281.659C105.559 283.114 104.536 283.773 103.127 283.773C101.542 283.773 100.985 282.938 100.627 282.455L99.5587 283.205C100.104 284.119 101.178 284.955 103.127 284.955ZM103.081 280.159C101.4 280.159 100.536 278.886 100.536 277.068C100.536 275.295 101.377 273.864 103.081 273.864C104.718 273.864 105.581 275.182 105.581 277.068C105.581 279 104.695 280.159 103.081 280.159ZM115.216 274.727C114.796 273.489 113.852 272.659 112.125 272.659C110.284 272.659 108.921 273.705 108.921 275.182C108.921 276.386 109.636 277.193 111.239 277.568L112.693 277.909C113.574 278.114 113.989 278.534 113.989 279.136C113.989 279.886 113.193 280.5 111.943 280.5C110.847 280.5 110.159 280.028 109.921 279.091L108.648 279.409C108.96 280.892 110.182 281.682 111.966 281.682C113.994 281.682 115.375 280.574 115.375 279.068C115.375 277.852 114.614 277.085 113.057 276.705L111.761 276.386C110.727 276.131 110.261 275.784 110.261 275.114C110.261 274.364 111.057 273.818 112.125 273.818C113.296 273.818 113.778 274.466 114.011 275.068L115.216 274.727Z" fill="#A1A1AA"/>
<rect x="460" y="264" width="24" height="24" rx="4" fill="#F4F4F5"/>
<path d="M475.193 274H476.466C476.088 272.031 474.438 270.679 472.29 270.679C469.68 270.679 467.835 272.688 467.835 275.909C467.835 279.131 469.665 281.139 472.369 281.139C474.795 281.139 476.526 279.523 476.526 277.003V275.909H472.648V277.003H475.332C475.298 278.832 474.094 279.986 472.369 279.986C470.48 279.986 469.028 278.554 469.028 275.909C469.028 273.264 470.48 271.832 472.29 271.832C473.761 271.832 474.761 272.663 475.193 274Z" fill="#A1A1AA"/>
<rect x="492" y="264" width="24" height="24" rx="4" fill="#F4F4F5"/>
<path d="M505.801 273.364H506.994C506.94 271.827 505.523 270.679 503.554 270.679C501.605 270.679 500.074 271.812 500.074 273.523C500.074 274.895 501.068 275.71 502.659 276.168L503.912 276.526C504.986 276.824 505.94 277.202 505.94 278.216C505.94 279.33 504.866 280.065 503.455 280.065C502.241 280.065 501.168 279.528 501.068 278.375H499.795C499.915 280.045 501.267 281.179 503.455 281.179C505.801 281.179 507.134 279.886 507.134 278.236C507.134 276.327 505.324 275.71 504.27 275.432L503.236 275.153C502.48 274.955 501.267 274.557 501.267 273.463C501.267 272.489 502.162 271.773 503.514 271.773C504.747 271.773 505.682 272.359 505.801 273.364Z" fill="#A1A1AA"/>
<path d="M27 385H22C20.8954 385 20 385.895 20 387V398C20 399.105 20.8954 400 22 400H33C34.1046 400 35 399.105 35 398V393M33.5858 383.586C34.3668 382.805 35.6332 382.805 36.4142 383.586C37.1953 384.367 37.1953 385.633 36.4142 386.414L27.8284 395H25L25 392.172L33.5858 383.586Z" stroke="#A1A1AA" stroke-width="1.5" stroke-linecap="round" stroke-linejoin="round"/>
<path d="M66.6364 385.864H65.25V395.023H65.1364L58.7727 385.864H57.4091V397.5H58.8182V388.364H58.9318L65.2727 397.5H66.6364V385.864ZM72.6132 397.682C74.386 397.682 75.6814 396.795 76.0905 395.477L74.7951 395.114C74.4541 396.023 73.6644 396.477 72.6132 396.477C71.0394 396.477 69.9541 395.46 69.8916 393.591H76.2269V393.023C76.2269 389.773 74.2951 388.659 72.4769 388.659C70.1132 388.659 68.5451 390.523 68.5451 393.205C68.5451 395.886 70.0905 397.682 72.6132 397.682ZM69.8916 392.432C69.9826 391.074 70.9428 389.864 72.4769 389.864C73.9314 389.864 74.8632 390.955 74.8632 392.432H69.8916ZM79.9239 397.5H81.2421L83.1512 390.795H83.2876L85.1966 397.5H86.5148L89.1739 388.773H87.7648L85.8785 395.432H85.7876L83.9466 388.773H82.5148L80.6512 395.455H80.5603L78.6739 388.773H77.2648L79.9239 397.5ZM94.8066 400.773H96.1476V396.159H96.2612C96.5566 396.636 97.1248 397.682 98.8066 397.682C100.988 397.682 102.511 395.932 102.511 393.159C102.511 390.409 100.988 388.659 98.7839 388.659C97.0794 388.659 96.5566 389.705 96.2612 390.159H96.1021V388.773H94.8066V400.773ZM96.1248 393.136C96.1248 391.182 96.9885 389.864 98.6248 389.864C100.329 389.864 101.17 391.295 101.17 393.136C101.17 395 100.307 396.477 98.6248 396.477C97.0112 396.477 96.1248 395.114 96.1248 393.136ZM107.782 397.682C110.146 397.682 111.737 395.886 111.737 393.182C111.737 390.455 110.146 388.659 107.782 388.659C105.418 388.659 103.828 390.455 103.828 393.182C103.828 395.886 105.418 397.682 107.782 397.682ZM107.782 396.477C105.987 396.477 105.168 394.932 105.168 393.182C105.168 391.432 105.987 389.864 107.782 389.864C109.578 389.864 110.396 391.432 110.396 393.182C110.396 394.932 109.578 396.477 107.782 396.477ZM119.645 390.727C119.225 389.489 118.282 388.659 116.554 388.659C114.714 388.659 113.35 389.705 113.35 391.182C113.35 392.386 114.066 393.193 115.668 393.568L117.123 393.909C118.003 394.114 118.418 394.534 118.418 395.136C118.418 395.886 117.623 396.5 116.373 396.5C115.276 396.5 114.589 396.028 114.35 395.091L113.077 395.409C113.39 396.892 114.611 397.682 116.395 397.682C118.424 397.682 119.804 396.574 119.804 395.068C119.804 393.852 119.043 393.085 117.486 392.705L116.191 392.386C115.157 392.131 114.691 391.784 114.691 391.114C114.691 390.364 115.486 389.818 116.554 389.818C117.725 389.818 118.208 390.466 118.441 391.068L119.645 390.727ZM125.298 388.773H123.435V386.682H122.094V388.773H120.776V389.909H122.094V395.364C122.094 396.886 123.321 397.614 124.457 397.614C124.957 397.614 125.276 397.523 125.457 397.455L125.185 396.25C125.071 396.273 124.889 396.318 124.594 396.318C124.003 396.318 123.435 396.136 123.435 395V389.909H125.298V388.773Z" fill="#A1A1AA"/>
<rect x="460" y="380" width="24" height="24" rx="4" fill="#F4F4F5"/>
<path d="M468.651 397L469.675 394.116H473.791L474.815 397H476.108L472.369 386.818H471.097L467.358 397H468.651ZM470.062 393.023L471.693 388.429H471.773L473.403 393.023H470.062Z" fill="#A1A1AA"/>
<rect x="492" y="380" width="24" height="24" rx="4" fill="#F4F4F5"/>
<path d="M508.307 386.818H507.094V394.832H506.994L501.426 386.818H500.233V397H501.466V389.006H501.565L507.114 397H508.307V386.818Z" fill="#A1A1AA"/>
<path d="M23 444H33M23 448H27M28 456L24 452H21C19.8954 452 19 451.105 19 450V442C19 440.895 19.8954 440 21 440H35C36.1046 440 37 440.895 37 442V450C37 451.105 36.1046 452 35 452H32L28 456Z" stroke="#A1A1AA" stroke-width="1.5" stroke-linecap="round" stroke-linejoin="round"/>
<path d="M57.8864 453.5L59.0568 450.205H63.7614L64.9318 453.5H66.4091L62.1364 441.864H60.6818L56.4091 453.5H57.8864ZM59.5 448.955L61.3636 443.705H61.4545L63.3182 448.955H59.5ZM71.0152 453.682C72.697 453.682 73.2652 452.636 73.5607 452.159H73.7198V453.5H75.0152V441.864H73.6743V446.159H73.5607C73.2652 445.705 72.7425 444.659 71.038 444.659C68.8334 444.659 67.3107 446.409 67.3107 449.159C67.3107 451.932 68.8334 453.682 71.0152 453.682ZM71.197 452.477C69.5152 452.477 68.6516 451 68.6516 449.136C68.6516 447.295 69.4925 445.864 71.197 445.864C72.8334 445.864 73.697 447.182 73.697 449.136C73.697 451.114 72.8107 452.477 71.197 452.477ZM80.6327 453.682C82.3145 453.682 82.8827 452.636 83.1782 452.159H83.3373V453.5H84.6327V441.864H83.2918V446.159H83.1782C82.8827 445.705 82.36 444.659 80.6555 444.659C78.4509 444.659 76.9282 446.409 76.9282 449.159C76.9282 451.932 78.4509 453.682 80.6327 453.682ZM80.8145 452.477C79.1327 452.477 78.2691 451 78.2691 449.136C78.2691 447.295 79.11 445.864 80.8145 445.864C82.4509 445.864 83.3145 447.182 83.3145 449.136C83.3145 451.114 82.4282 452.477 80.8145 452.477ZM94.6802 453.682C96.612 453.682 97.8848 452.5 98.112 450.955H96.7711C96.5211 451.909 95.7257 452.477 94.6802 452.477C93.0893 452.477 92.0666 451.159 92.0666 449.136C92.0666 447.159 93.112 445.864 94.6802 445.864C95.862 445.864 96.5666 446.591 96.7711 447.386H98.112C97.8848 445.75 96.4984 444.659 94.6575 444.659C92.2939 444.659 90.7257 446.523 90.7257 449.182C90.7257 451.795 92.2257 453.682 94.6802 453.682ZM103.298 453.682C105.661 453.682 107.252 451.886 107.252 449.182C107.252 446.455 105.661 444.659 103.298 444.659C100.934 444.659 99.3432 446.455 99.3432 449.182C99.3432 451.886 100.934 453.682 103.298 453.682ZM103.298 452.477C101.502 452.477 100.684 450.932 100.684 449.182C100.684 447.432 101.502 445.864 103.298 445.864C105.093 445.864 105.911 447.432 105.911 449.182C105.911 450.932 105.093 452.477 103.298 452.477ZM108.979 453.5H110.32V448.045C110.32 446.767 111.252 445.864 112.297 445.864C113.314 445.864 114.025 446.528 114.025 447.523V453.5H115.388V447.818C115.388 446.693 116.093 445.864 117.32 445.864C118.275 445.864 119.093 446.369 119.093 447.659V453.5H120.434V447.659C120.434 445.608 119.331 444.659 117.775 444.659C116.525 444.659 115.61 445.233 115.161 446.136H115.07C114.638 445.205 113.877 444.659 112.729 444.659C111.593 444.659 110.752 445.205 110.388 446.136H110.275V444.773H108.979V453.5ZM122.565 453.5H123.906V448.045C123.906 446.767 124.838 445.864 125.884 445.864C126.901 445.864 127.611 446.528 127.611 447.523V453.5H128.974V447.818C128.974 446.693 129.679 445.864 130.906 445.864C131.861 445.864 132.679 446.369 132.679 447.659V453.5H134.02V447.659C134.02 445.608 132.918 444.659 131.361 444.659C130.111 444.659 129.196 445.233 128.747 446.136H128.656C128.224 445.205 127.463 444.659 126.315 444.659C125.179 444.659 124.338 445.205 123.974 446.136H123.861V444.773H122.565V453.5ZM139.811 453.682C141.583 453.682 142.879 452.795 143.288 451.477L141.993 451.114C141.652 452.023 140.862 452.477 139.811 452.477C138.237 452.477 137.152 451.46 137.089 449.591H143.424V449.023C143.424 445.773 141.493 444.659 139.674 444.659C137.311 444.659 135.743 446.523 135.743 449.205C135.743 451.886 137.288 453.682 139.811 453.682ZM137.089 448.432C137.18 447.074 138.14 445.864 139.674 445.864C141.129 445.864 142.061 446.955 142.061 448.432H137.089ZM146.485 448.25C146.485 446.727 147.428 445.864 148.712 445.864C149.957 445.864 150.712 446.676 150.712 448.045V453.5H152.053V447.955C152.053 445.727 150.866 444.659 149.099 444.659C147.781 444.659 146.962 445.25 146.553 446.136H146.44V444.773H145.144V453.5H146.485V448.25ZM157.979 444.773H156.115V442.682H154.774V444.773H153.456V445.909H154.774V451.364C154.774 452.886 156.002 453.614 157.138 453.614C157.638 453.614 157.956 453.523 158.138 453.455L157.865 452.25C157.752 452.273 157.57 452.318 157.274 452.318C156.684 452.318 156.115 452.136 156.115 451V445.909H157.979V444.773Z" fill="#A1A1AA"/>
<rect x="460" y="436" width="24" height="24" rx="4" fill="#F4F4F5"/>
<path d="M468.651 453L469.675 450.116H473.791L474.815 453H476.108L472.369 442.818H471.097L467.358 453H468.651ZM470.062 449.023L471.693 444.429H471.773L473.403 449.023H470.062Z" fill="#A1A1AA"/>
<rect x="492" y="436" width="24" height="24" rx="4" fill="#F4F4F5"/>
<path d="M508.307 442.818H507.094V450.832H506.994L501.426 442.818H500.233V453H501.466V445.006H501.565L507.114 453H508.307V442.818Z" fill="#A1A1AA"/>
<rect width="532" height="56" transform="translate(0 476)" fill="#F4F4F5"/>
<path d="M179.398 510.261C180.761 510.261 181.869 509.153 181.875 507.795V506.477H184.159V507.795C184.153 509.153 185.261 510.261 186.625 510.261C187.983 510.261 189.091 509.153 189.091 507.795C189.091 506.432 187.983 505.324 186.625 505.318H185.318V503.034H186.625C187.983 503.04 189.091 501.932 189.091 500.568C189.091 499.21 187.983 498.102 186.625 498.102C185.261 498.102 184.153 499.21 184.159 500.568V501.875H181.875V500.568C181.869 499.21 180.761 498.102 179.398 498.102C178.04 498.102 176.932 499.21 176.932 500.568C176.932 501.932 178.04 503.04 179.398 503.034H180.716V505.318H179.398C178.04 505.324 176.932 506.432 176.932 507.795C176.932 509.153 178.04 510.261 179.398 510.261ZM179.398 509.102C178.676 509.102 178.091 508.517 178.091 507.795C178.091 507.068 178.676 506.483 179.398 506.477H180.716V507.795C180.71 508.517 180.125 509.102 179.398 509.102ZM179.398 501.875C178.676 501.881 178.091 501.295 178.091 500.568C178.091 499.847 178.676 499.261 179.398 499.261C180.125 499.261 180.71 499.847 180.716 500.568V501.875H179.398ZM186.625 509.102C185.898 509.102 185.312 508.517 185.318 507.795V506.477H186.625C187.347 506.483 187.932 507.068 187.932 507.795C187.932 508.517 187.347 509.102 186.625 509.102ZM185.318 501.875V500.568C185.312 499.847 185.898 499.261 186.625 499.261C187.347 499.261 187.932 499.847 187.932 500.568C187.932 501.295 187.347 501.881 186.625 501.875H185.318ZM181.875 505.318V503.034H184.159V505.318H181.875ZM192.105 510H193.514V506.227L194.968 504.591L199.014 510H200.718L195.832 503.614L200.718 498.364H198.877L193.65 504.136H193.514V498.364H192.105V510Z" fill="#71717A"/>
<rect x="169.5" y="490.5" width="37" height="27" rx="3.5" stroke="#E4E4E7"/>
<path d="M216.227 513.273H217.568V508.659H217.682C217.977 509.136 218.545 510.182 220.227 510.182C222.409 510.182 223.932 508.432 223.932 505.659C223.932 502.909 222.409 501.159 220.205 501.159C218.5 501.159 217.977 502.205 217.682 502.659H217.523V501.273H216.227V513.273ZM217.545 505.636C217.545 503.682 218.409 502.364 220.045 502.364C221.75 502.364 222.591 503.795 222.591 505.636C222.591 507.5 221.727 508.977 220.045 508.977C218.432 508.977 217.545 507.614 217.545 505.636ZM229.203 510.182C231.566 510.182 233.157 508.386 233.157 505.682C233.157 502.955 231.566 501.159 229.203 501.159C226.839 501.159 225.248 502.955 225.248 505.682C225.248 508.386 226.839 510.182 229.203 510.182ZM229.203 508.977C227.407 508.977 226.589 507.432 226.589 505.682C226.589 503.932 227.407 502.364 229.203 502.364C230.998 502.364 231.816 503.932 231.816 505.682C231.816 507.432 230.998 508.977 229.203 508.977ZM236.565 510H237.883L239.792 503.295H239.928L241.837 510H243.155L245.815 501.273H244.405L242.519 507.932H242.428L240.587 501.273H239.155L237.292 507.955H237.201L235.315 501.273H233.905L236.565 510ZM250.629 510.182C252.402 510.182 253.698 509.295 254.107 507.977L252.811 507.614C252.47 508.523 251.681 508.977 250.629 508.977C249.056 508.977 247.97 507.96 247.908 506.091H254.243V505.523C254.243 502.273 252.311 501.159 250.493 501.159C248.129 501.159 246.561 503.023 246.561 505.705C246.561 508.386 248.107 510.182 250.629 510.182ZM247.908 504.932C247.999 503.574 248.959 502.364 250.493 502.364C251.948 502.364 252.879 503.455 252.879 504.932H247.908ZM255.963 510H257.304V504.477C257.304 503.295 258.236 502.432 259.508 502.432C259.866 502.432 260.236 502.5 260.327 502.523V501.159C260.173 501.148 259.821 501.136 259.622 501.136C258.577 501.136 257.667 501.727 257.349 502.591H257.258V501.273H255.963V510ZM264.989 510.182C266.762 510.182 268.058 509.295 268.467 507.977L267.171 507.614C266.83 508.523 266.041 508.977 264.989 508.977C263.416 508.977 262.33 507.96 262.268 506.091H268.603V505.523C268.603 502.273 266.671 501.159 264.853 501.159C262.489 501.159 260.921 503.023 260.921 505.705C260.921 508.386 262.467 510.182 264.989 510.182ZM262.268 504.932C262.359 503.574 263.319 502.364 264.853 502.364C266.308 502.364 267.239 503.455 267.239 504.932H262.268ZM273.618 510.182C275.3 510.182 275.868 509.136 276.164 508.659H276.323V510H277.618V498.364H276.277V502.659H276.164C275.868 502.205 275.346 501.159 273.641 501.159C271.437 501.159 269.914 502.909 269.914 505.659C269.914 508.432 271.437 510.182 273.618 510.182ZM273.8 508.977C272.118 508.977 271.255 507.5 271.255 505.636C271.255 503.795 272.096 502.364 273.8 502.364C275.437 502.364 276.3 503.682 276.3 505.636C276.3 507.614 275.414 508.977 273.8 508.977ZM284.302 510H285.598V508.659H285.757C286.052 509.136 286.62 510.182 288.302 510.182C290.484 510.182 292.007 508.432 292.007 505.659C292.007 502.909 290.484 501.159 288.279 501.159C286.575 501.159 286.052 502.205 285.757 502.659H285.643V498.364H284.302V510ZM285.62 505.636C285.62 503.682 286.484 502.364 288.12 502.364C289.825 502.364 290.666 503.795 290.666 505.636C290.666 507.5 289.802 508.977 288.12 508.977C286.507 508.977 285.62 507.614 285.62 505.636ZM294.289 513.273C295.499 513.273 296.352 512.631 296.857 511.273L300.573 501.295L299.107 501.273L296.698 508.227H296.607L294.198 501.273H292.744L295.971 510.045L295.721 510.727C295.232 512.057 294.63 512.182 293.653 511.932L293.312 513.114C293.448 513.182 293.834 513.273 294.289 513.273Z" fill="#71717A"/>
<path d="M306.258 510H308.014V506.381L309.389 504.801L313.15 510H315.264L310.554 503.602L315.247 498.364H313.037L308.156 503.92H308.014V498.364H306.258V510ZM319.548 510.176C321.451 510.176 322.798 509.239 323.184 507.818L321.576 507.528C321.269 508.352 320.531 508.773 319.565 508.773C318.11 508.773 317.133 507.83 317.088 506.148H323.292V505.545C323.292 502.392 321.406 501.159 319.428 501.159C316.997 501.159 315.394 503.011 315.394 505.693C315.394 508.403 316.974 510.176 319.548 510.176ZM317.093 504.875C317.161 503.636 318.059 502.562 319.44 502.562C320.758 502.562 321.622 503.54 321.627 504.875H317.093ZM325.665 513.273C327.069 513.273 327.955 512.54 328.461 511.165L332.069 501.29L330.233 501.273L328.023 508.045H327.932L325.722 501.273H323.904L327.097 510.114L326.887 510.693C326.455 511.852 325.847 511.949 324.915 511.693L324.506 513.085C324.711 513.176 325.154 513.273 325.665 513.273ZM336.713 510.176C338.776 510.176 340.111 508.938 340.298 507.239H338.645C338.429 508.182 337.696 508.739 336.725 508.739C335.287 508.739 334.361 507.54 334.361 505.636C334.361 503.767 335.304 502.591 336.725 502.591C337.804 502.591 338.463 503.273 338.645 504.091H340.298C340.117 502.33 338.679 501.159 336.696 501.159C334.236 501.159 332.645 503.011 332.645 505.676C332.645 508.307 334.179 510.176 336.713 510.176ZM344.335 510.193C345.778 510.193 346.591 509.46 346.914 508.807H346.983V510H348.642V504.205C348.642 501.665 346.642 501.159 345.255 501.159C343.676 501.159 342.221 501.795 341.653 503.386L343.25 503.75C343.5 503.131 344.136 502.534 345.278 502.534C346.375 502.534 346.937 503.108 346.937 504.097V504.136C346.937 504.756 346.301 504.744 344.733 504.926C343.079 505.119 341.386 505.551 341.386 507.534C341.386 509.25 342.676 510.193 344.335 510.193ZM344.704 508.83C343.744 508.83 343.051 508.398 343.051 507.557C343.051 506.648 343.858 506.324 344.841 506.193C345.392 506.119 346.699 505.972 346.943 505.727V506.852C346.943 507.886 346.119 508.83 344.704 508.83ZM357.124 503.403C356.772 502.045 355.71 501.159 353.823 501.159C351.852 501.159 350.454 502.199 350.454 503.744C350.454 504.983 351.204 505.807 352.84 506.17L354.318 506.494C355.158 506.682 355.55 507.057 355.55 507.602C355.55 508.278 354.829 508.807 353.715 508.807C352.698 508.807 352.045 508.369 351.84 507.511L350.198 507.761C350.482 509.307 351.766 510.176 353.727 510.176C355.835 510.176 357.295 509.057 357.295 507.477C357.295 506.244 356.511 505.483 354.908 505.114L353.522 504.795C352.562 504.568 352.147 504.244 352.153 503.653C352.147 502.983 352.874 502.506 353.84 502.506C354.897 502.506 355.386 503.091 355.585 503.676L357.124 503.403ZM362.917 501.273H361.127V499.182H359.428V501.273H358.149V502.636H359.428V507.79C359.422 509.375 360.632 510.142 361.973 510.114C362.513 510.108 362.877 510.006 363.076 509.932L362.769 508.528C362.655 508.551 362.445 508.602 362.172 508.602C361.621 508.602 361.127 508.42 361.127 507.438V502.636H362.917V501.273Z" fill="#52525B"/>
<path d="M37.3878 104.455H34.767V114.369H34.6392L27.7926 104.455H25.4347V119H28.0696V109.092H28.1903L35.044 119H37.3878V104.455ZM42.8844 119.22C44.5961 119.22 45.6188 118.418 46.0876 117.501H46.1728V119H48.6444V111.699C48.6444 108.815 46.2935 107.949 44.2126 107.949C41.9185 107.949 40.1572 108.972 39.589 110.96L41.9896 111.301C42.2452 110.555 42.9697 109.916 44.2268 109.916C45.42 109.916 46.0734 110.527 46.0734 111.599V111.642C46.0734 112.381 45.2992 112.416 43.3745 112.622C41.258 112.849 39.2339 113.482 39.2339 115.939C39.2339 118.084 40.8035 119.22 42.8844 119.22ZM43.5521 117.331C42.4796 117.331 41.7126 116.841 41.7126 115.896C41.7126 114.909 42.5719 114.497 43.7225 114.334C44.3972 114.241 45.7467 114.071 46.0805 113.801V115.087C46.0805 116.301 45.1004 117.331 43.5521 117.331ZM60.1833 108.091H57.4489L54.9347 116.195H54.8211L52.314 108.091H49.5725L53.4575 119H56.2984L60.1833 108.091ZM61.5624 119H64.1335V108.091H61.5624V119ZM62.855 106.543C63.6718 106.543 64.3394 105.918 64.3394 105.151C64.3394 104.376 63.6718 103.751 62.855 103.751C62.0312 103.751 61.3636 104.376 61.3636 105.151C61.3636 105.918 62.0312 106.543 62.855 106.543ZM71.1216 123.318C74.069 123.318 76.2423 121.969 76.2423 119.178V108.091H73.7068V109.895H73.5648C73.1741 109.107 72.3574 107.949 70.4327 107.949C67.9114 107.949 65.9298 109.923 65.9298 113.51C65.9298 117.068 67.9114 118.844 70.4256 118.844C72.2935 118.844 73.167 117.842 73.5648 117.04H73.6926V119.107C73.6926 120.712 72.6273 121.372 71.1642 121.372C69.6159 121.372 68.9341 120.641 68.6216 120.001L66.3063 120.562C66.775 122.089 68.3446 123.318 71.1216 123.318ZM71.1429 116.827C69.4455 116.827 68.5506 115.506 68.5506 113.496C68.5506 111.514 69.4313 110.058 71.1429 110.058C72.7977 110.058 73.7068 111.429 73.7068 113.496C73.7068 115.577 72.7835 116.827 71.1429 116.827ZM81.6165 119.22C83.3281 119.22 84.3509 118.418 84.8196 117.501H84.9048V119H87.3764V111.699C87.3764 108.815 85.0256 107.949 82.9446 107.949C80.6506 107.949 78.8892 108.972 78.321 110.96L80.7216 111.301C80.9773 110.555 81.7017 109.916 82.9588 109.916C84.152 109.916 84.8054 110.527 84.8054 111.599V111.642C84.8054 112.381 84.0312 112.416 82.1065 112.622C79.9901 112.849 77.9659 113.482 77.9659 115.939C77.9659 118.084 79.5355 119.22 81.6165 119.22ZM82.2841 117.331C81.2116 117.331 80.4446 116.841 80.4446 115.896C80.4446 114.909 81.304 114.497 82.4545 114.334C83.1293 114.241 84.4787 114.071 84.8125 113.801V115.087C84.8125 116.301 83.8324 117.331 82.2841 117.331ZM95.0091 108.091H92.8571V105.477H90.2861V108.091H88.7378V110.08H90.2861V116.145C90.2719 118.197 91.7634 119.206 93.6952 119.149C94.4267 119.128 94.931 118.986 95.208 118.893L94.7747 116.884C94.6327 116.919 94.3415 116.983 94.0219 116.983C93.3756 116.983 92.8571 116.756 92.8571 115.719V110.08H95.0091V108.091ZM96.7593 119H99.3303V108.091H96.7593V119ZM98.0519 106.543C98.8687 106.543 99.5363 105.918 99.5363 105.151C99.5363 104.376 98.8687 103.751 98.0519 103.751C97.2281 103.751 96.5604 104.376 96.5604 105.151C96.5604 105.918 97.2281 106.543 98.0519 106.543ZM106.333 119.213C109.529 119.213 111.56 116.962 111.56 113.588C111.56 110.207 109.529 107.949 106.333 107.949C103.137 107.949 101.105 110.207 101.105 113.588C101.105 116.962 103.137 119.213 106.333 119.213ZM106.347 117.153C104.578 117.153 103.712 115.577 103.712 113.581C103.712 111.585 104.578 109.987 106.347 109.987C108.087 109.987 108.953 111.585 108.953 113.581C108.953 115.577 108.087 117.153 106.347 117.153ZM115.913 112.608C115.913 111.031 116.865 110.122 118.221 110.122C119.55 110.122 120.345 110.996 120.345 112.452V119H122.916V112.054C122.923 109.44 121.432 107.949 119.18 107.949C117.547 107.949 116.425 108.73 115.927 109.945H115.8V108.091H113.342V119H115.913V112.608Z" fill="#18181B"/>
<path d="M27.3026 347L28.5028 343.413H33.9716L35.179 347H37.9915L32.8636 332.455H29.6108L24.4901 347H27.3026ZM29.2131 341.297L31.1804 335.438H31.294L33.2614 341.297H29.2131ZM43.8202 347.213C46.5616 347.213 48.3088 345.587 48.4935 343.271H46.0361C45.8159 344.443 44.9707 345.118 43.8415 345.118C42.2364 345.118 41.1994 343.776 41.1994 341.545C41.1994 339.344 42.2577 338.023 43.8415 338.023C45.0773 338.023 45.8372 338.818 46.0361 339.869H48.4935C48.3159 337.504 46.4693 335.949 43.806 335.949C40.6099 335.949 38.5929 338.257 38.5929 341.588C38.5929 344.891 40.5602 347.213 43.8202 347.213ZM55.6521 336.091H53.5001V333.477H50.929V336.091H49.3808V338.08H50.929V344.145C50.9148 346.197 52.4063 347.206 54.3381 347.149C55.0697 347.128 55.5739 346.986 55.8509 346.893L55.4177 344.884C55.2756 344.919 54.9844 344.983 54.6648 344.983C54.0185 344.983 53.5001 344.756 53.5001 343.719V338.08H55.6521V336.091ZM57.4023 347H59.9733V336.091H57.4023V347ZM58.6949 334.543C59.5116 334.543 60.1793 333.918 60.1793 333.151C60.1793 332.376 59.5116 331.751 58.6949 331.751C57.871 331.751 57.2034 332.376 57.2034 333.151C57.2034 333.918 57.871 334.543 58.6949 334.543ZM66.9756 347.213C70.1717 347.213 72.2029 344.962 72.2029 341.588C72.2029 338.207 70.1717 335.949 66.9756 335.949C63.7796 335.949 61.7484 338.207 61.7484 341.588C61.7484 344.962 63.7796 347.213 66.9756 347.213ZM66.9898 345.153C65.2214 345.153 64.3549 343.577 64.3549 341.581C64.3549 339.585 65.2214 337.987 66.9898 337.987C68.7299 337.987 69.5964 339.585 69.5964 341.581C69.5964 343.577 68.7299 345.153 66.9898 345.153ZM76.5561 340.608C76.5561 339.031 77.5078 338.122 78.8643 338.122C80.1925 338.122 80.9879 338.996 80.9879 340.452V347H83.5589V340.054C83.5661 337.44 82.0746 335.949 79.8232 335.949C78.1896 335.949 77.0675 336.73 76.5703 337.945H76.4425V336.091H73.9851V347H76.5561V340.608ZM94.3947 338.974C94.0396 337.128 92.5624 335.949 90.0055 335.949C87.3777 335.949 85.5879 337.241 85.595 339.259C85.5879 340.849 86.568 341.901 88.6632 342.334L90.524 342.724C91.5254 342.945 91.9942 343.349 91.9942 343.967C91.9942 344.713 91.1845 345.274 89.9629 345.274C88.7839 345.274 88.0169 344.763 87.7967 343.783L85.2896 344.024C85.6092 346.027 87.2925 347.213 89.97 347.213C92.6973 347.213 94.622 345.8 94.6291 343.733C94.622 342.178 93.6206 341.226 91.5609 340.778L89.7001 340.381C88.5922 340.132 88.1518 339.749 88.1589 339.116C88.1518 338.378 88.9686 337.866 90.041 337.866C91.2271 337.866 91.8521 338.513 92.051 339.23L94.3947 338.974Z" fill="#18181B"/>
<rect x="484" y="100" width="24" height="24" rx="4" fill="#F4F4F5"/>
<path fill-rule="evenodd" clip-rule="evenodd" d="M491.293 109.293C491.683 108.902 492.317 108.902 492.707 109.293L496 112.586L499.293 109.293C499.683 108.902 500.317 108.902 500.707 109.293C501.098 109.683 501.098 110.317 500.707 110.707L496.707 114.707C496.317 115.098 495.683 115.098 495.293 114.707L491.293 110.707C490.902 110.317 490.902 109.683 491.293 109.293Z" fill="#A1A1AA"/>
<rect x="484" y="328" width="24" height="24" rx="4" fill="#F4F4F5"/>
<path fill-rule="evenodd" clip-rule="evenodd" d="M491.293 337.293C491.683 336.902 492.317 336.902 492.707 337.293L496 340.586L499.293 337.293C499.683 336.902 500.317 336.902 500.707 337.293C501.098 337.683 501.098 338.317 500.707 338.707L496.707 342.707C496.317 343.098 495.683 343.098 495.293 342.707L491.293 338.707C490.902 338.317 490.902 337.683 491.293 337.293Z" fill="#A1A1AA"/>
<line x1="18.5312" y1="363.5" x2="513.469" y2="363.5" stroke="#F4F4F5"/>
</g>
<defs>
<clipPath id="clip0">
<rect width="532" height="532" rx="20" fill="white"/>
</clipPath>
</defs>
</svg>
