<svg width="642" height="638" viewBox="0 0 642 638" fill="none" xmlns="http://www.w3.org/2000/svg">
<g filter="url(#filter0_d)">
<g clip-path="url(#clip0)">
<rect x="73.0762" y="35.0001" width="535.203" height="531.502" rx="13.4557" transform="rotate(4 73.0762 35.0001)" fill="white"/>
<path d="M120.465 91.1441L114.223 83.9633M116.851 78.5268C116.548 82.8512 112.798 86.1117 108.473 85.8093C104.149 85.507 100.888 81.7562 101.191 77.4317C101.493 73.1073 105.244 69.8468 109.568 70.1492C113.893 70.4516 117.153 74.2024 116.851 78.5268Z" stroke="#A1A1AA" stroke-width="1.68197" stroke-linecap="round" stroke-linejoin="round"/>
<path d="M145.849 90.1682L147.476 90.282L151.074 80.1106L151.176 80.1177L153.323 90.6909L154.95 90.8046L159.419 78.0373L157.818 77.9253L154.356 88.3362L154.229 88.3273L152.199 77.5324L150.42 77.408L146.908 87.8153L146.78 87.8064L144.802 77.0151L143.2 76.9031L145.849 90.1682ZM161.822 85.3839C161.941 83.6806 163.096 82.7906 164.577 82.8941C165.988 82.9928 166.777 83.9421 166.669 85.4929L166.242 91.5942L167.742 91.6991L168.176 85.4961C168.351 82.9856 167.099 81.7165 165.103 81.577C163.565 81.4694 162.643 82.05 162.115 83.0285L161.988 83.0197L162.322 78.2403L160.822 78.1354L159.912 91.1516L161.412 91.2565L161.822 85.3839ZM172.985 92.2957C174.688 92.4148 175.642 91.5618 175.991 90.9476L176.067 90.9529L175.975 92.2748L177.475 92.3797L177.925 85.9479C178.142 82.8464 175.802 82.3251 174.556 82.238C173.082 82.1349 171.369 82.526 170.481 84.2523L171.87 84.8603C172.25 84.1715 173.085 83.4635 174.515 83.5635C175.894 83.66 176.523 84.4384 176.435 85.6905L176.432 85.7413C176.381 86.4659 175.648 86.3507 173.853 86.4551C172.025 86.5636 170.02 86.8258 169.864 89.0629C169.731 90.9696 171.129 92.1659 172.985 92.2957ZM173.308 90.9643C172.113 90.8807 171.286 90.2864 171.359 89.2441C171.439 88.1001 172.506 87.8171 173.686 87.7463C174.327 87.7145 176.043 87.6556 176.318 87.3683L176.222 88.7411C176.137 89.9614 175.087 91.0887 173.308 90.9643ZM184.783 83.0809L182.698 82.9351L182.862 80.5962L181.362 80.4913L181.198 82.8302L179.724 82.7271L179.635 83.9982L181.109 84.1013L180.683 90.2027C180.564 91.906 181.88 92.8155 183.151 92.9043C183.71 92.9435 184.073 92.8667 184.282 92.8046L184.071 91.4359C183.942 91.4524 183.735 91.4891 183.405 91.4659C182.744 91.4197 182.122 91.1719 182.211 89.9008L182.609 84.2062L184.694 84.352L184.783 83.0809ZM192.886 93.4574L194.36 93.5605L197.02 86.2102L197.173 86.2209L198.784 93.8698L200.258 93.9729L203.915 84.4187L202.339 84.3085L199.708 91.6097L199.607 91.6026L198.068 84.0099L196.467 83.8979L193.859 91.2262L193.758 91.2191L192.17 83.5974L190.594 83.4872L192.886 93.4574ZM208.477 94.752C211.121 94.9369 213.041 93.053 213.253 90.0277C213.466 86.977 211.827 84.8442 209.183 84.6593C206.539 84.4745 204.619 86.3584 204.406 89.4091C204.194 92.4343 205.833 94.5671 208.477 94.752ZM208.572 93.4046C206.563 93.2642 205.769 91.4715 205.906 89.5139C206.043 87.5564 207.08 85.8663 209.089 86.0067C211.097 86.1472 211.89 87.9653 211.753 89.9228C211.616 91.8803 210.58 93.5451 208.572 93.4046ZM221.278 91.4319C221.15 93.2623 219.693 94.0035 218.574 93.9253C217.329 93.8382 216.503 92.8607 216.603 91.4371L217.029 85.3357L215.529 85.2309L215.096 91.4339C214.921 93.9253 216.16 95.2126 217.99 95.3406C219.465 95.4437 220.486 94.7231 221.013 93.7637L221.114 93.7708L220.999 95.4232L222.499 95.5281L223.181 85.7659L221.681 85.6611L221.278 91.4319ZM227.298 82.7838L225.798 82.679L224.888 95.6952L226.388 95.8001L227.298 82.7838ZM232.449 96.4283C234.33 96.5598 235.048 95.4348 235.416 94.9241L235.594 94.9365L235.489 96.4364L236.938 96.5378L237.848 83.5216L236.348 83.4167L236.012 88.2215L235.885 88.2126C235.59 87.681 235.087 86.4707 233.18 86.3374C230.714 86.165 228.874 88.0034 228.659 91.0795C228.442 94.181 230.009 96.2576 232.449 96.4283ZM232.747 95.0951C230.866 94.9636 230.015 93.2436 230.161 91.1589C230.305 89.0997 231.357 87.5639 233.264 87.6972C235.094 87.8252 235.957 89.3673 235.805 91.5536C235.65 93.7653 234.552 95.2213 232.747 95.0951ZM244.921 100.775C246.275 100.869 247.278 100.218 247.95 98.7384L252.887 87.8687L251.249 87.7286L248.01 95.3194L247.909 95.3123L245.758 87.3446L244.131 87.2309L247.055 97.2963L246.722 98.0394C246.071 99.4884 245.387 99.5811 244.314 99.225L243.84 100.52C243.987 100.607 244.412 100.739 244.921 100.775ZM257.435 98.1754C260.079 98.3603 261.999 96.4764 262.21 93.4511C262.424 90.4005 260.784 88.2677 258.141 88.0828C255.497 87.8979 253.577 89.7818 253.363 92.8325C253.152 95.8578 254.791 97.9906 257.435 98.1754ZM257.529 96.8281C255.521 96.6876 254.726 94.8949 254.863 92.9374C255 90.9799 256.038 89.2897 258.046 89.4302C260.055 89.5706 260.847 91.3887 260.71 93.3463C260.573 95.3038 259.537 96.9685 257.529 96.8281ZM270.235 94.8554C270.107 96.6858 268.651 97.4269 267.532 97.3487C266.286 97.2616 265.46 96.2842 265.56 94.8605L265.987 88.7592L264.487 88.6543L264.053 94.8573C263.879 97.3487 265.117 98.636 266.948 98.764C268.422 98.8671 269.443 98.1466 269.97 97.1871L270.072 97.1942L269.956 98.8467L271.456 98.9515L272.139 89.1894L270.639 89.0845L270.235 94.8554ZM280.931 86.5342L279.431 86.4294L278.521 99.4456L280.021 99.5505L280.931 86.5342ZM282.41 99.7175L283.91 99.8224L284.593 90.0603L283.093 89.9554L282.41 99.7175ZM283.969 88.3817C284.554 88.4226 285.069 87.9987 285.108 87.4394C285.147 86.8802 284.696 86.3888 284.112 86.3479C283.527 86.307 283.012 86.7308 282.973 87.2901C282.934 87.8494 283.385 88.3408 283.969 88.3817ZM286.299 99.9895L287.799 100.094L288.055 96.4399L289.172 95.5408L292.503 100.423L294.409 100.557L290.37 94.6539L294.787 90.7731L292.931 90.6433L288.356 94.6919L288.178 94.6794L288.71 87.0782L287.21 86.9733L286.299 99.9895ZM299.353 101.107C301.336 101.245 302.855 100.355 303.415 98.9127L301.995 98.4046C301.542 99.3948 300.623 99.8415 299.448 99.7593C297.687 99.6362 296.553 98.4137 296.629 96.3178L303.716 96.8133L303.76 96.1778C304.014 92.5424 301.94 91.1456 299.907 91.0034C297.263 90.8185 295.363 92.7804 295.153 95.7803C294.943 98.7801 296.532 100.909 299.353 101.107ZM296.72 95.0212C296.928 93.5094 298.096 92.2307 299.812 92.3507C301.439 92.4645 302.396 93.7577 302.281 95.4101L296.72 95.0212ZM314.937 92.1821L312.853 92.0364L313.016 89.6975L311.516 89.5926L311.353 91.9315L309.878 91.8284L309.789 93.0995L311.264 93.2026L310.837 99.304C310.718 101.007 312.034 101.917 313.305 102.006C313.864 102.045 314.227 101.968 314.436 101.906L314.225 100.537C314.096 100.554 313.89 100.59 313.559 100.567C312.898 100.521 312.277 100.273 312.366 99.0021L312.764 93.3075L314.848 93.4533L314.937 92.1821ZM320 102.55C322.644 102.735 324.564 100.851 324.775 97.8261C324.989 94.7754 323.349 92.6426 320.706 92.4578C318.062 92.2729 316.142 94.1568 315.928 97.2075C315.717 100.233 317.356 102.366 320 102.55ZM320.094 101.203C318.086 101.063 317.291 99.2699 317.428 97.3124C317.565 95.3548 318.603 93.6647 320.611 93.8051C322.62 93.9456 323.412 95.7637 323.275 97.7212C323.138 99.6787 322.102 101.343 320.094 101.203ZM334.717 103.58C336.598 103.711 337.315 102.586 337.683 102.075L337.861 102.088L337.756 103.588L339.205 103.689L340.116 90.6728L338.616 90.5679L338.28 95.3727L338.153 95.3638C337.858 94.8323 337.355 93.622 335.448 93.4887C332.982 93.3162 331.142 95.1546 330.927 98.2307C330.71 101.332 332.276 103.409 334.717 103.58ZM335.014 102.246C333.133 102.115 332.283 100.395 332.428 98.3102C332.572 96.251 333.625 94.7152 335.532 94.8485C337.362 94.9765 338.225 96.5185 338.072 98.7048C337.918 100.917 336.819 102.373 335.014 102.246ZM345.754 104.351C348.398 104.536 350.318 102.652 350.53 99.6271C350.743 96.5764 349.104 94.4436 346.46 94.2587C343.816 94.0738 341.896 95.9577 341.683 99.0084C341.471 102.034 343.11 104.166 345.754 104.351ZM345.849 103.004C343.84 102.864 343.046 101.071 343.183 99.1133C343.32 97.1558 344.358 95.4656 346.366 95.6061C348.374 95.7465 349.167 97.5647 349.03 99.5222C348.893 101.48 347.857 103.144 345.849 103.004ZM354.337 101.068L355.863 101.175L355.868 101.099C356.004 99.5244 356.458 98.8665 357.626 98.2456C358.792 97.6437 359.521 96.7112 359.62 95.3066C359.758 93.3237 358.41 91.7733 356.173 91.6169C354.114 91.4729 352.392 92.6298 352.145 94.784L353.747 94.896C353.947 93.4027 355.039 92.8659 356.081 92.9388C357.276 93.0224 358.187 93.878 358.1 95.1237C358.029 96.1342 357.4 96.8183 356.625 97.2176C355.326 97.8868 354.531 98.572 354.343 100.992L354.337 101.068ZM354.888 104.888C355.517 104.932 356.068 104.453 356.112 103.824C356.156 103.195 355.677 102.644 355.048 102.6C354.418 102.556 353.868 103.035 353.824 103.664C353.78 104.293 354.258 104.844 354.888 104.888Z" fill="#A1A1AA"/>
<rect x="538.895" y="95.1126" width="38.1246" height="30.2754" rx="3.92459" transform="rotate(4 538.895 95.1126)" fill="#FAFAFA"/>
<path d="M548.341 117.171C550.076 117.292 551.405 116.513 551.895 115.251L550.652 114.806C550.256 115.673 549.452 116.064 548.423 115.992C546.883 115.884 545.89 114.814 545.957 112.981L552.158 113.414L552.197 112.858C552.419 109.677 550.605 108.455 548.825 108.33C546.512 108.169 544.849 109.885 544.666 112.51C544.482 115.135 545.872 116.998 548.341 117.171ZM546.037 111.846C546.218 110.523 547.241 109.404 548.743 109.509C550.166 109.609 551.004 110.74 550.902 112.186L546.037 111.846ZM560.088 111.152C559.761 109.911 558.894 109.035 557.204 108.916C555.402 108.79 553.996 109.72 553.895 111.166C553.812 112.345 554.458 113.184 556 113.66L557.401 114.094C558.249 114.354 558.626 114.794 558.585 115.384C558.533 116.118 557.713 116.664 556.489 116.578C555.416 116.503 554.775 115.995 554.606 115.061L553.338 115.285C553.543 116.758 554.684 117.614 556.431 117.736C558.416 117.875 559.843 116.885 559.946 115.412C560.029 114.222 559.337 113.419 557.839 112.94L556.593 112.54C555.598 112.218 555.166 111.847 555.212 111.191C555.263 110.457 556.079 109.978 557.125 110.051C558.27 110.131 558.698 110.798 558.885 111.403L560.088 111.152ZM564.9 118.329C566.791 118.461 568.117 117.391 568.445 115.894L567.133 115.802C566.823 116.72 566.006 117.221 564.982 117.15C563.425 117.041 562.514 115.681 562.653 113.701C562.788 111.766 563.9 110.569 565.435 110.677C566.592 110.757 567.231 111.518 567.377 112.31L568.69 112.402C568.579 110.785 567.297 109.622 565.495 109.496C563.182 109.334 561.519 111.051 561.337 113.654C561.158 116.212 562.497 118.161 564.9 118.329Z" fill="#71717A"/>
<rect x="538.895" y="95.1126" width="38.1246" height="30.2754" rx="3.92459" transform="rotate(4 538.895 95.1126)" stroke="#F4F4F5" stroke-width="1.12131"/>
<line x1="67.1719" y1="119.453" x2="601.071" y2="156.787" stroke="#F4F4F5" stroke-width="1.12131"/>
<path d="M92.0149 160.944L90.256 160.821L89.7907 167.475L89.7049 167.469L85.5751 160.493L83.9926 160.383L83.3099 170.145L85.0784 170.269L85.5434 163.619L85.6244 163.625L89.7593 170.596L91.3323 170.706L92.0149 160.944ZM94.2444 170.91L95.2183 168.559L98.8886 168.815L99.5306 171.279L101.418 171.411L98.6593 161.408L96.4762 161.256L92.3568 170.778L94.2444 170.91ZM95.7943 167.172L97.3896 163.331L97.4659 163.337L98.5113 167.362L95.7943 167.172ZM103.31 161.734L101.37 161.598L104.124 171.6L106.307 171.753L110.431 162.232L108.487 162.096L105.413 169.602L105.313 169.595L103.31 161.734ZM113.217 162.426L111.449 162.303L110.766 172.065L112.535 172.189L113.217 162.426ZM121.186 166.116L122.988 166.242C122.821 164.305 121.256 162.854 119.096 162.703C116.541 162.525 114.494 164.269 114.274 167.415C114.058 170.504 115.754 172.548 118.448 172.736C120.864 172.905 122.703 171.472 122.879 168.955L122.961 167.783L119 167.506L118.903 168.888L121.153 169.045C121.027 170.435 120.036 171.252 118.568 171.149C116.933 171.035 115.899 169.732 116.053 167.52C116.207 165.323 117.432 164.182 119.009 164.292C120.187 164.375 120.943 165.06 121.186 166.116ZM124.998 173.06L125.972 170.709L129.642 170.966L130.284 173.43L132.171 173.562L129.413 163.559L127.229 163.406L123.11 172.928L124.998 173.06ZM126.548 169.322L128.143 165.482L128.219 165.487L129.265 169.512L126.548 169.322ZM132.159 165.241L135.176 165.452L134.597 173.731L136.352 173.854L136.931 165.574L139.948 165.785L140.051 164.303L132.263 163.758L132.159 165.241ZM143.053 164.513L141.285 164.389L140.602 174.151L142.37 174.275L143.053 164.513ZM153.081 170.119C153.302 166.963 151.506 164.97 148.946 164.791C146.382 164.611 144.331 166.336 144.11 169.492C143.89 172.642 145.681 174.64 148.245 174.82C150.805 174.999 152.861 173.274 153.081 170.119ZM151.303 169.995C151.148 172.216 149.948 173.344 148.356 173.232C146.769 173.121 145.733 171.837 145.888 169.616C146.044 167.395 147.248 166.267 148.835 166.378C150.428 166.489 151.459 167.773 151.303 169.995ZM162.848 165.897L161.089 165.774L160.624 172.428L160.538 172.422L156.409 165.447L154.826 165.336L154.143 175.098L155.912 175.222L156.377 168.572L156.458 168.578L160.593 175.549L162.166 175.659L162.848 165.897Z" fill="#71717A"/>
<line x1="81.3379" y1="184.514" x2="577.988" y2="219.244" stroke="#F4F4F5" stroke-width="1.12131"/>
<rect width="533.744" height="62.7935" transform="translate(63.5586 181.585) rotate(4)" fill="#F4F4F5"/>
<path d="M82.6222 214.392L85.0158 212.311M85.0158 212.311L93.3934 205.028L100.676 213.406M85.0158 212.311L84.2336 223.497C84.1904 224.114 84.6562 224.65 85.274 224.693L88.6297 224.928M100.676 213.406L102.757 215.8M100.676 213.406L99.8937 224.592C99.8505 225.209 99.3147 225.675 98.6969 225.632L95.3412 225.397M88.6297 224.928C89.2475 224.971 89.7833 224.506 89.8265 223.888L90.1394 219.413C90.1826 218.796 90.7184 218.33 91.3362 218.373L93.5734 218.529C94.1911 218.573 94.6569 219.109 94.6137 219.726L94.3008 224.201C94.2576 224.818 94.7234 225.354 95.3412 225.397M88.6297 224.928L95.3412 225.397" stroke="#3F3F46" stroke-width="1.68197" stroke-linecap="round" stroke-linejoin="round"/>
<path d="M125.073 224.726L126.649 224.836L127.056 219.014L133.996 219.499L133.589 225.321L135.165 225.431L136.075 212.415L134.499 212.305L134.094 218.101L127.154 217.616L127.559 211.82L125.983 211.709L125.073 224.726ZM141.711 226.093C144.355 226.278 146.275 224.394 146.487 221.369C146.7 218.318 145.061 216.186 142.417 216.001C139.773 215.816 137.853 217.7 137.64 220.75C137.428 223.776 139.067 225.909 141.711 226.093ZM141.805 224.746C139.797 224.606 139.003 222.813 139.139 220.855C139.276 218.898 140.314 217.208 142.323 217.348C144.331 217.489 145.123 219.307 144.987 221.264C144.85 223.222 143.814 224.886 141.805 224.746ZM148.08 226.334L149.58 226.439L150.007 220.338C150.107 218.908 151.22 217.97 152.389 218.052C153.527 218.132 154.269 218.931 154.192 220.043L153.724 226.729L155.249 226.836L155.694 220.48C155.782 219.222 156.635 218.349 158.008 218.445C159.075 218.52 159.951 219.149 159.85 220.592L159.393 227.125L160.893 227.23L161.35 220.697C161.511 218.402 160.352 217.255 158.61 217.133C157.212 217.035 156.144 217.606 155.571 218.581L155.47 218.574C155.059 217.498 154.25 216.828 152.967 216.738C151.695 216.65 150.712 217.194 150.233 218.208L150.105 218.199L150.212 216.674L148.763 216.572L148.08 226.334ZM167.356 227.887C169.339 228.025 170.858 227.135 171.419 225.693L169.998 225.185C169.545 226.175 168.626 226.622 167.451 226.539C165.69 226.416 164.556 225.194 164.632 223.098L171.719 223.593L171.763 222.958C172.017 219.322 169.943 217.926 167.91 217.783C165.266 217.599 163.366 219.56 163.156 222.56C162.946 225.56 164.535 227.689 167.356 227.887ZM164.723 221.801C164.931 220.289 166.099 219.011 167.815 219.131C169.442 219.245 170.399 220.538 170.284 222.19L164.723 221.801Z" fill="#3F3F46"/>
<rect x="550.006" y="233.586" width="26.9115" height="26.9115" rx="4.48525" transform="rotate(4 550.006 233.586)" fill="#F4F4F5"/>
<path d="M557.854 253.667L559.233 253.764L559.59 248.67L565.662 249.095L565.306 254.189L566.685 254.285L567.482 242.896L566.103 242.799L565.748 247.871L559.675 247.446L560.03 242.375L558.651 242.278L557.854 253.667Z" fill="#A1A1AA"/>
<g clip-path="url(#clip1)">
<path d="M93.2753 287.076L98.8682 287.467L99.0246 285.23C99.1542 283.376 97.7568 281.769 95.9035 281.639C94.8346 281.564 93.8474 281.998 93.1785 282.733M93.2753 287.076L82.0894 286.294M93.2753 287.076L93.4317 284.839C93.483 284.104 93.3906 283.394 93.1785 282.733M82.0894 286.294L76.4965 285.902L76.653 283.665C76.7826 281.812 78.3901 280.415 80.2434 280.544C81.3123 280.619 82.2296 281.185 82.7896 282.007M82.0894 286.294L82.2459 284.056C82.2972 283.322 82.4877 282.631 82.7896 282.007M82.7896 282.007C83.7584 280.004 85.8751 278.69 88.2299 278.855C90.5847 279.019 92.4979 280.615 93.1785 282.733M92.0549 272.378C91.9253 274.231 90.3179 275.628 88.4645 275.499C86.6112 275.369 85.2139 273.762 85.3435 271.908C85.4731 270.055 87.0805 268.658 88.9339 268.787C90.7872 268.917 92.1845 270.524 92.0549 272.378ZM98.5318 276.203C98.4454 277.438 97.3737 278.37 96.1382 278.283C94.9026 278.197 93.971 277.125 94.0574 275.89C94.1438 274.654 95.2155 273.723 96.451 273.809C97.6866 273.896 98.6182 274.967 98.5318 276.203ZM82.8716 275.108C82.7852 276.343 81.7136 277.275 80.478 277.188C79.2425 277.102 78.3109 276.03 78.3973 274.795C78.4837 273.559 79.5554 272.628 80.7909 272.714C82.0265 272.801 82.958 273.872 82.8716 275.108Z" stroke="#A1A1AA" stroke-width="1.68197" stroke-linecap="round" stroke-linejoin="round"/>
</g>
<path d="M120.79 275.698L124.883 275.984L124.071 287.602L125.647 287.713L126.459 276.095L130.552 276.381L130.65 274.983L120.888 274.3L120.79 275.698ZM134.274 288.52C136.257 288.659 137.776 287.769 138.336 286.326L136.916 285.818C136.463 286.808 135.544 287.255 134.369 287.173C132.608 287.05 131.474 285.827 131.55 283.731L138.637 284.227L138.681 283.591C138.935 279.956 136.861 278.559 134.828 278.417C132.184 278.232 130.284 280.194 130.074 283.194C129.864 286.194 131.452 288.323 134.274 288.52ZM131.641 282.435C131.849 280.923 133.017 279.644 134.733 279.764C136.36 279.878 137.317 281.171 137.202 282.824L131.641 282.435ZM143.111 289.164C144.814 289.283 145.768 288.43 146.118 287.816L146.194 287.821L146.102 289.143L147.601 289.248L148.051 282.816C148.268 279.714 145.929 279.193 144.683 279.106C143.209 279.003 141.495 279.394 140.608 281.12L141.996 281.728C142.376 281.04 143.211 280.332 144.641 280.432C146.021 280.528 146.65 281.306 146.562 282.559L146.558 282.609C146.508 283.334 145.775 283.219 143.979 283.323C142.152 283.432 140.147 283.694 139.991 285.931C139.857 287.838 141.255 289.034 143.111 289.164ZM143.434 287.832C142.239 287.749 141.412 287.154 141.485 286.112C141.565 284.968 142.632 284.685 143.812 284.614C144.453 284.583 146.169 284.524 146.445 284.236L146.349 285.609C146.263 286.829 145.214 287.957 143.434 287.832ZM149.981 289.414L151.481 289.519L151.908 283.418C152.008 281.988 153.121 281.05 154.29 281.132C155.428 281.211 156.17 282.011 156.092 283.123L155.625 289.809L157.15 289.916L157.595 283.56C157.683 282.302 158.536 281.429 159.908 281.525C160.976 281.599 161.852 282.229 161.751 283.672L161.294 290.205L162.794 290.31L163.251 283.777C163.411 281.482 162.253 280.335 160.511 280.213C159.113 280.115 158.045 280.685 157.472 281.661L157.37 281.654C156.96 280.578 156.151 279.908 154.867 279.818C153.596 279.729 152.613 280.274 152.133 281.288L152.006 281.279L152.113 279.753L150.664 279.652L149.981 289.414Z" fill="#A1A1AA"/>
<rect x="545.627" y="296.226" width="26.9115" height="26.9115" rx="4.48525" transform="rotate(4 545.627 296.226)" fill="#F4F4F5"/>
<path d="M553.565 306.099L557.147 306.349L556.436 316.515L557.815 316.611L558.526 306.446L562.107 306.696L562.193 305.473L553.651 304.875L553.565 306.099Z" fill="#A1A1AA"/>
<path d="M82.6566 331.652C83.2709 329.72 86.0651 329.916 86.4046 331.914C86.624 333.204 88.036 333.908 89.1988 333.307C90.9988 332.376 92.8364 334.49 91.6637 336.142C90.9062 337.21 91.4068 338.706 92.6544 339.103C94.5858 339.718 94.3904 342.512 92.3923 342.851C91.1016 343.071 90.3976 344.483 90.9992 345.646C91.9305 347.446 89.8165 349.283 88.1636 348.11C87.0958 347.353 85.5996 347.854 85.2028 349.101C84.5884 351.033 81.7943 350.837 81.4547 348.839C81.2353 347.548 79.8234 346.844 78.6606 347.446C76.8605 348.377 75.0229 346.263 76.1956 344.61C76.9531 343.543 76.4525 342.046 75.2049 341.65C73.2736 341.035 73.469 338.241 75.467 337.901C76.7577 337.682 77.4617 336.27 76.8601 335.107C75.9289 333.307 78.0428 331.47 79.6957 332.642C80.7635 333.4 82.2597 332.899 82.6566 331.652Z" stroke="#A1A1AA" stroke-width="1.68197" stroke-linecap="round" stroke-linejoin="round"/>
<path d="M87.2854 340.611C87.1558 342.464 85.5483 343.862 83.695 343.732C81.8417 343.603 80.4443 341.995 80.5739 340.142C80.7035 338.288 82.311 336.891 84.1643 337.021C86.0176 337.15 87.415 338.758 87.2854 340.611Z" stroke="#A1A1AA" stroke-width="1.68197" stroke-linecap="round" stroke-linejoin="round"/>
<path d="M124.114 340.742L125.639 340.849C125.706 338.88 123.998 337.285 121.481 337.109C118.99 336.935 116.931 338.247 116.778 340.433C116.655 342.188 117.853 343.319 119.846 344.046L121.416 344.615C122.762 345.093 123.948 345.661 123.858 346.958C123.758 348.381 122.32 349.226 120.515 349.1C118.964 348.991 117.639 348.209 117.615 346.725L115.988 346.612C115.991 348.758 117.619 350.328 120.415 350.523C123.415 350.733 125.234 349.2 125.381 347.09C125.552 344.649 123.294 343.699 121.971 343.249L120.674 342.801C119.726 342.479 118.211 341.862 118.308 340.464C118.396 339.218 119.604 338.383 121.332 338.504C122.908 338.614 124.051 339.448 124.114 340.742ZM131.243 351.255C133.226 351.394 134.745 350.503 135.305 349.061L133.885 348.553C133.432 349.543 132.513 349.99 131.337 349.907C129.577 349.784 128.443 348.562 128.519 346.466L135.605 346.961L135.65 346.326C135.904 342.691 133.83 341.294 131.796 341.152C129.153 340.967 127.253 342.929 127.043 345.928C126.833 348.928 128.421 351.058 131.243 351.255ZM128.61 345.169C128.817 343.658 129.986 342.379 131.702 342.499C133.329 342.613 134.286 343.906 134.171 345.558L128.61 345.169ZM142.151 342.003L140.067 341.858L140.23 339.519L138.73 339.414L138.567 341.753L137.092 341.65L137.004 342.921L138.478 343.024L138.051 349.125C137.932 350.828 139.248 351.738 140.519 351.827C141.079 351.866 141.442 351.789 141.65 351.727L141.439 350.358C141.311 350.375 141.104 350.412 140.773 350.388C140.112 350.342 139.491 350.094 139.58 348.823L139.978 343.129L142.063 343.274L142.151 342.003ZM148.295 342.433L146.211 342.287L146.374 339.948L144.874 339.843L144.711 342.182L143.236 342.079L143.147 343.35L144.622 343.453L144.195 349.555C144.076 351.258 145.392 352.168 146.663 352.256C147.222 352.296 147.585 352.219 147.794 352.157L147.583 350.788C147.454 350.805 147.247 350.841 146.917 350.818C146.256 350.772 145.635 350.524 145.724 349.253L146.122 343.558L148.206 343.704L148.295 342.433ZM149.511 352.328L151.011 352.433L151.693 342.671L150.194 342.566L149.511 352.328ZM151.07 340.992C151.655 341.033 152.17 340.609 152.209 340.05C152.248 339.491 151.797 338.999 151.212 338.958C150.627 338.917 150.112 339.341 150.073 339.9C150.034 340.46 150.485 340.951 151.07 340.992ZM155.311 346.832C155.43 345.129 156.552 344.237 157.989 344.337C159.381 344.434 160.162 345.402 160.055 346.934L159.629 353.035L161.128 353.14L161.562 346.937C161.736 344.446 160.492 343.158 158.515 343.02C157.041 342.917 156.079 343.514 155.552 344.473L155.425 344.464L155.532 342.939L154.083 342.838L153.4 352.6L154.9 352.705L155.311 346.832ZM167.182 357.447C169.52 357.61 171.476 356.674 171.652 354.157L172.355 344.115L170.905 344.014L170.797 345.565L170.644 345.554C170.35 345.023 169.821 343.81 167.915 343.677C165.449 343.505 163.608 345.343 163.399 348.343C163.185 351.394 164.844 353.247 167.208 353.412C169.115 353.545 169.803 352.47 170.171 351.959L170.298 351.968L170.16 353.951C170.046 355.578 168.85 356.235 167.274 356.125C165.501 356.001 164.943 355.023 164.581 354.455L163.327 355.21C163.866 356.276 165.002 357.294 167.182 357.447ZM167.506 352.079C165.625 351.947 164.758 350.456 164.9 348.422C165.039 346.439 166.092 344.904 167.998 345.037C169.829 345.165 170.692 346.707 170.544 348.817C170.393 350.978 169.311 352.205 167.506 352.079ZM181.504 346.952C181.131 345.534 180.141 344.532 178.208 344.397C176.149 344.253 174.542 345.316 174.427 346.968C174.332 348.316 175.07 349.274 176.833 349.819L178.433 350.314C179.403 350.612 179.834 351.114 179.786 351.788C179.728 352.627 178.79 353.251 177.392 353.153C176.165 353.068 175.433 352.486 175.239 351.419L173.791 351.675C174.024 353.359 175.329 354.338 177.325 354.477C179.594 354.636 181.225 353.505 181.343 351.82C181.438 350.46 180.646 349.543 178.934 348.995L177.51 348.538C176.373 348.171 175.879 347.747 175.932 346.997C175.991 346.158 176.923 345.61 178.118 345.694C179.427 345.785 179.917 346.547 180.13 347.239L181.504 346.952Z" fill="#A1A1AA"/>
<rect x="541.25" y="358.867" width="26.9115" height="26.9115" rx="4.48525" transform="rotate(4 541.25 358.867)" fill="#F4F4F5"/>
<path d="M555.924 370.842L557.259 370.935C557.318 369.213 555.823 367.817 553.621 367.663C551.441 367.511 549.639 368.659 549.505 370.572C549.398 372.107 550.446 373.097 552.19 373.733L553.564 374.231C554.742 374.649 555.78 375.146 555.7 376.281C555.613 377.526 554.355 378.265 552.775 378.155C551.418 378.06 550.259 377.375 550.238 376.077L548.814 375.978C548.817 377.856 550.241 379.229 552.688 379.401C555.313 379.584 556.904 378.242 557.033 376.396C557.183 374.261 555.207 373.429 554.05 373.036L552.915 372.643C552.085 372.362 550.759 371.822 550.845 370.599C550.921 369.509 551.978 368.778 553.491 368.884C554.87 368.98 555.869 369.709 555.924 370.842Z" fill="#A1A1AA"/>
<path d="M67.1202 419.676L68.0941 417.325L71.7645 417.582L72.4065 420.046L74.2941 420.178L71.5352 410.175L69.352 410.022L65.2326 419.544L67.1202 419.676ZM68.6701 415.938L70.2655 412.098L70.3417 412.103L71.3871 416.128L68.6701 415.938ZM83.6609 414.333C83.5123 412.143 81.9319 410.768 79.7679 410.616C77.2177 410.438 75.1667 412.163 74.9461 415.318C74.7258 418.469 76.4926 420.466 79.0666 420.646C81.3879 420.808 83.0326 419.414 83.4346 417.569L81.6525 417.435C81.3485 418.563 80.3692 419.142 79.2014 419.06C77.6189 418.949 76.5674 417.683 76.7241 415.443C76.878 413.24 78.0886 412.094 79.6855 412.206C80.8724 412.289 81.7549 413.026 81.8782 414.208L83.6609 414.333ZM84.7096 412.586L87.7269 412.797L87.1479 421.077L88.9021 421.199L89.4811 412.919L92.4984 413.13L92.602 411.648L84.8133 411.103L84.7096 412.586ZM95.6035 411.858L93.8351 411.734L93.1524 421.496L94.9209 421.62L95.6035 411.858ZM105.632 417.464C105.852 414.309 104.057 412.315 101.497 412.136C98.9325 411.957 96.8815 413.681 96.6609 416.837C96.4405 419.988 98.2312 421.986 100.796 422.165C103.355 422.344 105.411 420.62 105.632 417.464ZM103.854 417.34C103.698 419.561 102.499 420.689 100.907 420.578C99.3194 420.467 98.2835 419.182 98.4388 416.961C98.5942 414.74 99.7987 413.612 101.386 413.723C102.978 413.835 104.009 415.119 103.854 417.34ZM115.399 413.242L113.64 413.119L113.175 419.773L113.089 419.767L108.959 412.792L107.377 412.681L106.694 422.443L108.462 422.567L108.927 415.917L109.008 415.923L113.143 422.894L114.716 423.004L115.399 413.242ZM122.175 416.413L123.877 416.532C123.959 414.88 122.634 413.614 120.556 413.469C118.506 413.325 116.886 414.371 116.77 416.097C116.672 417.498 117.612 418.374 119.189 418.901L120.28 419.264C121.315 419.605 121.988 419.983 121.939 420.741C121.876 421.575 121.046 422.077 119.892 421.996C118.787 421.919 117.963 421.363 117.963 420.333L116.224 420.212C116.159 422.157 117.527 423.349 119.801 423.508C122.142 423.672 123.582 422.599 123.707 420.879C123.82 419.186 122.478 418.316 121.034 417.866L120.135 417.573C119.347 417.326 118.503 416.927 118.57 416.113C118.626 415.379 119.322 414.886 120.427 414.964C121.481 415.037 122.142 415.577 122.175 416.413Z" fill="#71717A"/>
<line x1="63.8946" y1="433.958" x2="560.544" y2="468.687" stroke="#F4F4F5" stroke-width="1.12131"/>
<path d="M74.6756 456.631L69.0827 456.239C67.8471 456.153 66.7755 457.085 66.6891 458.32L65.8287 470.625C65.7423 471.86 66.6738 472.932 67.9094 473.018L80.2138 473.879C81.4493 473.965 82.521 473.033 82.6074 471.798L82.9985 466.205M82.1529 455.564C83.0877 454.751 84.5042 454.85 85.3168 455.785C86.1293 456.72 86.0303 458.136 85.0955 458.949L74.8201 467.881L71.6562 467.66L71.8775 464.496L82.1529 455.564Z" stroke="#A1A1AA" stroke-width="1.68197" stroke-linecap="round" stroke-linejoin="round"/>
<path d="M118.861 461.874L117.31 461.766L116.594 472.011L116.467 472.002L110.065 461.259L108.539 461.153L107.629 474.169L109.205 474.279L109.92 464.059L110.047 464.068L116.425 474.784L117.951 474.891L118.861 461.874ZM124.622 475.561C126.605 475.7 128.123 474.81 128.684 473.367L127.263 472.859C126.811 473.85 125.892 474.296 124.716 474.214C122.956 474.091 121.821 472.868 121.898 470.773L128.984 471.268L129.029 470.633C129.283 466.997 127.209 465.6 125.175 465.458C122.531 465.273 120.631 467.235 120.422 470.235C120.212 473.235 121.8 475.364 124.622 475.561ZM121.988 469.476C122.196 467.964 123.365 466.685 125.081 466.805C126.708 466.919 127.665 468.212 127.549 469.865L121.988 469.476ZM132.814 475.93L134.288 476.033L136.948 468.683L137.101 468.693L138.712 476.342L140.186 476.445L143.843 466.891L142.267 466.781L139.636 474.082L139.535 474.075L137.996 466.482L136.395 466.37L133.787 473.699L133.686 473.692L132.098 466.07L130.522 465.96L132.814 475.93ZM149.205 480.755L150.705 480.86L151.066 475.699L151.193 475.708C151.486 476.265 152.04 477.479 153.921 477.61C156.362 477.781 158.202 475.942 158.419 472.841C158.634 469.765 157.068 467.688 154.602 467.516C152.695 467.382 152.029 468.511 151.663 468.996L151.485 468.984L151.593 467.433L150.144 467.332L149.205 480.755ZM151.277 472.316C151.43 470.13 152.499 468.723 154.33 468.851C156.236 468.984 157.065 470.651 156.921 472.711C156.775 474.795 155.694 476.38 153.812 476.249C152.007 476.122 151.122 474.528 151.277 472.316ZM163.961 478.312C166.605 478.497 168.525 476.613 168.737 473.588C168.95 470.537 167.311 468.405 164.667 468.22C162.023 468.035 160.103 469.919 159.89 472.969C159.678 475.995 161.317 478.127 163.961 478.312ZM164.055 476.965C162.047 476.824 161.253 475.032 161.39 473.074C161.527 471.117 162.564 469.427 164.573 469.567C166.581 469.707 167.374 471.526 167.237 473.483C167.1 475.441 166.064 477.105 164.055 476.965ZM177.775 471.461C177.402 470.043 176.412 469.041 174.48 468.906C172.42 468.762 170.813 469.825 170.698 471.477C170.603 472.824 171.341 473.783 173.104 474.328L174.704 474.823C175.674 475.12 176.105 475.623 176.057 476.297C175.999 477.136 175.061 477.76 173.663 477.662C172.436 477.576 171.704 476.995 171.51 475.928L170.062 476.184C170.295 477.867 171.6 478.846 173.596 478.986C175.865 479.145 177.496 478.013 177.614 476.329C177.709 474.969 176.917 474.051 175.205 473.504L173.781 473.047C172.645 472.68 172.15 472.256 172.203 471.506C172.262 470.667 173.194 470.119 174.389 470.202C175.698 470.294 176.188 471.056 176.401 471.748L177.775 471.461ZM184.251 469.717L182.167 469.571L182.33 467.232L180.83 467.127L180.667 469.466L179.192 469.363L179.103 470.634L180.578 470.737L180.151 476.839C180.032 478.542 181.348 479.451 182.619 479.54C183.179 479.579 183.542 479.503 183.75 479.441L183.539 478.072C183.411 478.088 183.204 478.125 182.873 478.102C182.212 478.056 181.591 477.808 181.68 476.537L182.078 470.842L184.163 470.988L184.251 469.717Z" fill="#A1A1AA"/>
<rect x="532.566" y="483.029" width="26.9115" height="26.9115" rx="4.48525" transform="rotate(4 532.566 483.029)" fill="#F4F4F5"/>
<path d="M550.244 492.353L548.888 492.258L548.261 501.223L548.149 501.215L542.548 491.815L541.213 491.722L540.417 503.111L541.796 503.207L542.421 494.265L542.532 494.273L548.113 503.649L549.448 503.742L550.244 492.353Z" fill="#A1A1AA"/>
<path d="M65.5853 522.314L76.7711 523.096M65.2724 526.788L69.7467 527.101M70.2396 536.128L66.0781 531.341L62.7224 531.106C61.4868 531.02 60.5552 529.948 60.6416 528.713L61.2674 519.764C61.3538 518.528 62.4254 517.597 63.661 517.683L79.3211 518.778C80.5567 518.865 81.4882 519.936 81.4018 521.172L80.7761 530.121C80.6897 531.356 79.618 532.288 78.3825 532.201L75.0268 531.967L70.2396 536.128Z" stroke="#A1A1AA" stroke-width="1.68197" stroke-linecap="round" stroke-linejoin="round"/>
<path d="M103.782 536.847L105.349 533.252L110.612 533.62L111.663 537.398L113.316 537.513L109.446 524.163L107.819 524.049L102.13 536.731L103.782 536.847ZM105.943 531.889L108.438 526.162L108.54 526.169L110.214 532.187L105.943 531.889ZM118.454 538.077C120.335 538.209 121.052 537.084 121.42 536.573L121.598 536.585L121.493 538.085L122.942 538.187L123.852 525.17L122.352 525.065L122.016 529.87L121.889 529.861C121.594 529.33 121.091 528.12 119.185 527.986C116.719 527.814 114.879 529.652 114.664 532.728C114.447 535.83 116.013 537.906 118.454 538.077ZM118.751 536.744C116.87 536.612 116.019 534.892 116.165 532.808C116.309 530.749 117.362 529.213 119.269 529.346C121.099 529.474 121.962 531.016 121.809 533.202C121.654 535.414 120.556 536.87 118.751 536.744ZM129.212 538.829C131.093 538.961 131.81 537.836 132.178 537.325L132.356 537.338L132.251 538.837L133.7 538.939L134.61 525.923L133.11 525.818L132.774 530.623L132.647 530.614C132.352 530.082 131.849 528.872 129.943 528.738C127.477 528.566 125.637 530.404 125.422 533.481C125.205 536.582 126.771 538.659 129.212 538.829ZM129.509 537.496C127.628 537.365 126.777 535.645 126.923 533.56C127.067 531.501 128.12 529.965 130.026 530.098C131.857 530.226 132.72 531.768 132.567 533.955C132.412 536.166 131.314 537.622 129.509 537.496ZM144.925 539.928C147.086 540.079 148.602 538.857 148.977 537.146L147.477 537.041C147.123 538.089 146.188 538.662 145.019 538.581C143.24 538.456 142.199 536.902 142.357 534.639C142.511 532.427 143.782 531.06 145.536 531.183C146.858 531.275 147.59 532.144 147.756 533.05L149.256 533.155C149.13 531.306 147.664 529.978 145.605 529.834C142.961 529.649 141.061 531.611 140.853 534.585C140.649 537.509 142.179 539.736 144.925 539.928ZM154.564 540.602C157.208 540.787 159.128 538.903 159.34 535.878C159.553 532.827 157.914 530.694 155.27 530.509C152.626 530.325 150.706 532.209 150.493 535.259C150.281 538.284 151.92 540.417 154.564 540.602ZM154.658 539.255C152.65 539.114 151.856 537.322 151.993 535.364C152.13 533.407 153.167 531.716 155.176 531.857C157.184 531.997 157.977 533.815 157.84 535.773C157.703 537.73 156.667 539.395 154.658 539.255ZM160.934 540.843L162.433 540.948L162.86 534.847C162.96 533.417 164.073 532.479 165.243 532.561C166.38 532.64 167.123 533.44 167.045 534.552L166.577 541.238L168.103 541.344L168.547 534.989C168.635 533.73 169.488 532.858 170.861 532.954C171.929 533.028 172.804 533.658 172.703 535.101L172.246 541.634L173.746 541.739L174.203 535.206C174.364 532.911 173.205 531.764 171.464 531.642C170.065 531.544 168.997 532.114 168.424 533.09L168.323 533.083C167.913 532.007 167.104 531.337 165.82 531.247C164.549 531.158 163.565 531.703 163.086 532.717L162.959 532.708L163.065 531.182L161.616 531.081L160.934 540.843ZM176.131 541.906L177.631 542.011L178.057 535.909C178.157 534.479 179.27 533.542 180.44 533.624C181.577 533.703 182.32 534.502 182.242 535.614L181.775 542.301L183.3 542.407L183.744 536.052C183.832 534.793 184.685 533.92 186.058 534.016C187.126 534.091 188.002 534.721 187.901 536.163L187.444 542.697L188.944 542.802L189.401 536.268C189.561 533.974 188.402 532.826 186.661 532.705C185.263 532.607 184.194 533.177 183.622 534.153L183.52 534.145C183.11 533.069 182.301 532.4 181.017 532.31C179.746 532.221 178.763 532.765 178.283 533.779L178.156 533.77L178.263 532.245L176.814 532.144L176.131 541.906ZM195.407 543.458C197.39 543.597 198.908 542.707 199.469 541.264L198.048 540.756C197.596 541.746 196.677 542.193 195.501 542.111C193.741 541.988 192.606 540.765 192.683 538.669L199.769 539.165L199.814 538.529C200.068 534.894 197.994 533.497 195.96 533.355C193.316 533.17 191.416 535.132 191.207 538.132C190.997 541.132 192.585 543.261 195.407 543.458ZM192.773 537.373C192.981 535.861 194.15 534.582 195.866 534.702C197.493 534.816 198.45 536.109 198.334 537.762L192.773 537.373ZM203.298 537.904C203.417 536.201 204.539 535.309 205.976 535.409C207.368 535.506 208.149 536.474 208.042 538.006L207.615 544.107L209.115 544.212L209.549 538.009C209.723 535.518 208.479 534.23 206.502 534.092C205.028 533.989 204.066 534.586 203.539 535.545L203.412 535.536L203.519 534.011L202.07 533.91L201.387 543.672L202.887 543.777L203.298 537.904ZM216.426 534.914L214.342 534.768L214.505 532.429L213.005 532.324L212.842 534.663L211.367 534.56L211.279 535.831L212.753 535.934L212.326 542.036C212.207 543.739 213.523 544.648 214.794 544.737C215.354 544.776 215.717 544.7 215.925 544.637L215.714 543.269C215.586 543.285 215.379 543.322 215.048 543.299C214.387 543.253 213.766 543.005 213.855 541.734L214.253 536.039L216.338 536.185L216.426 534.914Z" fill="#A1A1AA"/>
<rect x="528.184" y="545.67" width="26.9115" height="26.9115" rx="4.48525" transform="rotate(4 528.184 545.67)" fill="#F4F4F5"/>
<path d="M545.744 558.562C545.485 556.197 543.713 554.687 541.422 554.527C538.508 554.323 536.237 556.422 535.985 560.026C535.733 563.629 537.689 566.024 540.604 566.228C542.895 566.388 544.86 565.139 545.446 562.833L544.066 562.737C543.622 564.293 542.206 565.043 540.694 564.938C538.625 564.793 537.113 563.078 537.32 560.119C537.527 557.161 539.263 555.673 541.331 555.817C542.844 555.923 544.142 556.863 544.365 558.466L545.744 558.562Z" fill="#A1A1AA"/>
</g>
</g>
<defs>
<filter id="filter0_d" x="0.118015" y="-0.881863" width="642.739" height="639.305" filterUnits="userSpaceOnUse" color-interpolation-filters="sRGB">
<feFlood flood-opacity="0" result="BackgroundImageFix"/>
<feColorMatrix in="SourceAlpha" type="matrix" values="0 0 0 0 0 0 0 0 0 0 0 0 0 0 0 0 0 0 127 0"/>
<feOffset/>
<feGaussianBlur stdDeviation="17.941"/>
<feColorMatrix type="matrix" values="0 0 0 0 0 0 0 0 0 0 0 0 0 0 0 0 0 0 0.1 0"/>
<feBlend mode="normal" in2="BackgroundImageFix" result="effect1_dropShadow"/>
<feBlend mode="normal" in="SourceGraphic" in2="effect1_dropShadow" result="shape"/>
</filter>
<clipPath id="clip0">
<rect x="73.0762" y="35.0001" width="535.203" height="531.502" rx="13.4557" transform="rotate(4 73.0762 35.0001)" fill="white"/>
</clipPath>
<clipPath id="clip1">
<rect width="26.9115" height="26.9115" fill="white" transform="translate(75.8223 263.374) rotate(4)"/>
</clipPath>
</defs>
</svg>
